<?xml version="1.0" encoding="UTF-8"?>
<svg id="Layer_1" xmlns="http://www.w3.org/2000/svg" version="1.1" viewBox="0 0 658.6 192.2">
  <!-- Generator: Adobe Illustrator 29.1.0, SVG Export Plug-In . SVG Version: 2.1.0 Build 142)  -->
  <defs>
    <style>
      .st0 {
        fill-rule: evenodd;
      }

      .st1 {
        fill: #fc1b1c;
      }
    </style>
  </defs>
  <path d="M9.7,165.6h6.9l9.7,26.1h-7.1l-1.6-4.7h-9.1l-1.6,4.7H0l9.7-26.1M10.2,182h5.9l-2.9-9.1h0l-3,9.1Z"/>
  <polyline points="28.8 165.6 38.8 165.6 43.3 183 43.4 183 47.9 165.6 57.9 165.6 57.9 191.7 51.5 191.7 51.5 171.9 51.4 171.9 45.9 191.7 40.7 191.7 35.3 171.9 35.2 171.9 35.2 191.7 28.8 191.7 28.8 165.6"/>
  <path d="M70,165.6h6.9l9.7,26.1h-7.1l-1.6-4.7h-9.1l-1.6,4.7h-7l9.7-26.1M70.4,182h5.9l-2.9-9.1h0l-3,9.1Z"/>
  <path d="M89.1,165.6h11.2c8,0,12.8,4.9,12.8,12.9s-4.9,13.1-12.8,13.1h-11.2v-26.1M95.8,185.8h3.2c5.1-.1,7.2-2.1,7.2-7.3s-2.6-7-7.2-7h-3.2v14.4Z"/>
  <path d="M122.8,165.6h6.9l9.7,26.1h-7.1l-1.6-4.7h-9.1l-1.6,4.7h-7l9.7-26.1M123.3,182h5.9l-2.9-9.1h0l-3,9.1Z"/>
  <path d="M160.7,165.6h6.9l9.7,26.1h-7.1l-1.6-4.7h-9.1l-1.6,4.7h-7l9.7-26.1M161.2,182h5.9l-2.9-9.1h0l-3,9.1Z"/>
  <path d="M201.5,180.9c0,7.6-3.5,11.3-11.4,11.3s-11.3-3.8-11.3-11.3v-15.3h6.8v15.7c0,3.4,1.2,5.1,4.6,5.1s4.6-1.7,4.6-5.1v-15.7h6.8v15.3"/>
  <polyline points="227.1 171.5 219.3 171.5 219.3 191.7 212.5 191.7 212.5 171.5 204.8 171.5 204.8 165.6 227.1 165.6 227.1 171.5"/>
  <path d="M241.6,165.1c8.2,0,12.8,6,12.8,13.6s-4.6,13.6-12.8,13.6-12.8-6-12.8-13.6,4.6-13.6,12.8-13.6M241.6,186.4c4.4,0,6.1-3.9,6.1-7.7s-1.7-7.7-6.1-7.7-6.1,3.9-6.1,7.7,1.7,7.7,6.1,7.7Z"/>
  <polyline points="258.6 165.6 268.6 165.6 273.1 183 273.1 183 277.6 165.6 287.6 165.6 287.6 191.7 281.2 191.7 281.2 171.9 281.2 171.9 275.7 191.7 270.5 191.7 265 171.9 264.9 171.9 264.9 191.7 258.6 191.7 258.6 165.6"/>
  <path d="M299.8,165.6h6.9l9.7,26.1h-7.1l-1.6-4.7h-9.1l-1.6,4.7h-7l9.7-26.1M300.2,182h5.9l-2.9-9.1h0l-3,9.1Z"/>
  <polyline points="336.1 171.5 328.4 171.5 328.4 191.7 321.6 191.7 321.6 171.5 313.8 171.5 313.8 165.6 336.1 165.6 336.1 171.5"/>
  <rect x="339.5" y="165.6" width="6.8" height="26.1"/>
  <path d="M363.3,165.1c8.2,0,12.8,6,12.8,13.6s-4.6,13.6-12.8,13.6-12.8-6-12.8-13.6,4.6-13.6,12.8-13.6M363.3,186.4c4.4,0,6.1-3.9,6.1-7.7s-1.7-7.7-6.1-7.7-6.1,3.9-6.1,7.7,1.7,7.7,6.1,7.7Z"/>
  <polyline points="380.2 165.6 387.1 165.6 396.2 181.7 396.2 181.7 396.2 165.6 402.6 165.6 402.6 191.7 395.7 191.7 386.6 175.4 386.5 175.4 386.5 191.7 380.2 191.7 380.2 165.6"/>
  <polyline points="419.6 165.6 440.3 165.6 440.3 171.1 426.4 171.1 426.4 175.6 439.1 175.6 439.1 180.9 426.4 180.9 426.4 185.8 440.7 185.8 440.7 191.7 419.6 191.7 419.6 165.6"/>
  <path d="M467.1,180.9c0,7.6-3.5,11.3-11.4,11.3s-11.4-3.8-11.4-11.3v-15.3h6.8v15.7c0,3.4,1.2,5.1,4.6,5.1s4.6-1.7,4.6-5.1v-15.7h6.8v15.3"/>
  <path d="M471.6,165.6h13.3c4.6,0,9.1,2.1,9.1,7.3s-1.4,5.5-4.1,6.5h0c2.8.7,3.6,3.8,3.8,6.3,0,1.1.2,4.9,1.1,5.9h-6.7c-.6-.9-.7-3.4-.8-4.2-.2-2.6-.6-5.3-3.8-5.3h-5.1v9.5h-6.8v-26.1M478.4,176.9h5.7c2,0,3.1-1.1,3.1-3.1s-1.5-2.8-3.4-2.8h-5.4v5.9Z"/>
  <path d="M509.8,165.1c8.2,0,12.8,6,12.8,13.6s-4.6,13.6-12.8,13.6-12.8-6-12.8-13.6,4.6-13.6,12.8-13.6M509.8,186.4c4.4,0,6.1-3.9,6.1-7.7s-1.7-7.7-6.1-7.7-6.1,3.9-6.1,7.7,1.7,7.7,6.1,7.7Z"/>
  <path d="M526.4,165.6h12.4c4.9,0,9.4,2.2,9.4,8.4s-3.7,9-9.4,9h-5.6v8.7h-6.8v-26.1M533.2,177.7h4.6c2.1,0,3.7-.9,3.7-3.2s-1.6-3.4-3.7-3.4h-4.6v6.7Z"/>
  <polyline points="551.4 165.6 572.1 165.6 572.1 171.1 558.2 171.1 558.2 175.6 570.9 175.6 570.9 180.9 558.2 180.9 558.2 185.8 572.5 185.8 572.5 191.7 551.4 191.7 551.4 165.6"/>
  <polyline points="587.9 165.6 594.7 165.6 594.7 185.8 606.8 185.8 606.8 191.7 587.9 191.7 587.9 165.6"/>
  <polyline points="624.4 171.5 616.7 171.5 616.7 191.7 609.9 191.7 609.9 171.5 602.1 171.5 602.1 165.6 624.4 165.6 624.4 171.5"/>
  <path d="M625.8,165.6h11.2c8,0,12.8,4.9,12.8,12.9s-4.9,13.1-12.8,13.1h-11.2v-26.1M632.6,185.8h3.2c5.1-.1,7.2-2.1,7.2-7.3s-2.6-7-7.2-7h-3.2v14.4Z"/>
  <rect x="651.8" y="184.9" width="6.8" height="6.8"/>
  <path class="st1" d="M165.2,57.3c0,20.2-16.4,36.6-36.6,36.6s-36.6-16.4-36.6-36.6,16.4-36.6,36.6-36.6,36.6,16.4,36.6,36.6"/>
  <path class="st0" d="M128.7,0c-31.7,0-57.3,25.7-57.3,57.3v57.3h22.9v-11.5c9.6,7.2,21.5,11.5,34.4,11.5s24.8-4.3,34.4-11.5v11.5h22.9v-57.3c0-31.7-25.7-57.3-57.3-57.3M128.7,91.7c-19,0-34.4-15.4-34.4-34.4s15.4-34.4,34.4-34.4,34.4,15.4,34.4,34.4-15.4,34.4-34.4,34.4"/>
  <polyline points="247.9 82.9 231.9 55 204.3 55 204.3 114.7 227.3 114.7 227.3 94.8 238.7 114.7 257.1 114.7 257.1 114.6 268.5 94.8 268.5 114.7 291.4 114.7 291.4 55 263.9 55 247.9 82.9"/>
  <path d="M367.1,114.7h27.5l-28.7-59.6h-34.4l-28.6,59.6h27.5l3.3-6.9h30.1l3.3,6.9M339.2,96.3l9.5-19.8,9.5,19.8h-19Z"/>
  <path d="M463.4,55.1h-57.3v59.6h57.3c16.5,0,29.8-13.3,29.8-29.8s-13.3-29.8-29.8-29.8M449.6,103.2h-18.3v-18.3s0,0,0,0c0,0,0,0,0,0v-18.3h18.3c10.1,0,18.3,8.2,18.3,18.3s-8.2,18.3-18.3,18.3"/>
  <path d="M559.7,114.7h27.5l-28.7-59.6h-34.4l-28.7,59.6h27.5l3.3-6.9h30.1l3.3,6.9M531.9,96.3l9.5-19.8,9.5,19.8h-19.1Z"/>
</svg>