<svg width="85" height="40" viewBox="0 0 85 40" fill="none" xmlns="http://www.w3.org/2000/svg">
<g clip-path="url(#clip0_12820_7524)">
<path d="M43.9285 31.9627C43.575 32.4941 43.1953 32.8137 42.641 32.9736C42.1565 33.1162 41.5629 33.1507 41.1396 32.9434C40.9432 32.8483 40.8297 32.8483 40.4674 32.5848C40.1052 32.3213 39.8826 31.8763 39.7778 31.5047C39.5989 30.8783 39.6643 30.3167 40.0659 29.7162C40.4674 29.1157 40.8035 28.9299 41.3578 28.7701C42.1347 28.5455 42.9422 28.701 43.4834 29.2237C44.0246 29.7508 44.1206 30.0229 44.2341 30.4334C44.4174 31.0641 44.2821 31.4313 43.9285 31.9627ZM45.7966 33.1982C46.5211 32.1484 46.8004 31.4183 46.4731 30.1396C46.2592 29.3058 46.0803 28.7399 45.0284 27.6469C43.9766 26.5495 42.3791 26.1823 40.8253 26.5884C39.7211 26.8779 39.0446 27.2278 38.224 28.4158C37.4035 29.6039 37.2551 30.7358 37.5824 32.0145C37.7745 32.7705 38.1978 33.6907 38.9049 34.2394C39.612 34.7881 39.8389 34.7967 40.2274 35.0041C41.061 35.449 42.2395 35.4102 43.204 35.1596C44.3039 34.8658 45.0721 34.2437 45.7966 33.1982ZM63.5212 30.6148C63.5212 30.9302 63.591 32.0966 63.591 32.0966C63.591 32.0966 62.2511 32.1484 61.4 32.1484C60.5533 32.1484 59.7938 32.1139 59.7938 32.1139C59.7938 32.1139 59.8462 33.6173 59.8113 34.1444C59.7633 34.8399 59.8113 35.341 59.8462 35.7687C59.868 36.015 58.8205 36.1835 58.4103 36.1316C57.725 36.0452 56.9525 36.0711 56.9525 36.0711C56.9525 36.0711 56.7954 35.0645 56.8303 34.3042C56.8652 33.5439 56.9699 32.2348 56.9699 32.2348C56.9699 32.2348 56.4942 32.1268 55.7173 32.0923C55.4947 32.0836 54.181 32.183 53.9889 32.183C53.7969 32.183 53.0724 32.0923 53.0724 32.0923C53.0724 32.0923 53.0113 31.0295 53.0113 30.7142C53.0113 30.3988 53.0724 29.1978 53.0724 29.1978C53.0724 29.1978 54.4472 29.1114 54.8749 29.1805C55.2983 29.2496 56.7648 29.1978 56.9568 29.1978C57.1489 29.1978 56.9394 27.6987 56.9918 26.9729C57.0616 25.9663 56.9568 25.5257 56.9568 25.5257H57.0834C57.4195 25.5257 58.563 25.4911 58.8249 25.4911C59.1304 25.4911 59.7764 25.5257 59.7764 25.5257C59.7764 25.5257 59.6716 26.7785 59.7415 27.5043C59.8113 28.2301 59.7764 29.2021 59.7764 29.2021C59.7764 29.2021 60.2696 29.2496 60.5533 29.2367C61.4524 29.2021 63.591 29.2021 63.591 29.2021C63.591 29.2021 63.5212 30.2951 63.5212 30.6148ZM47.3809 33.924C46.4295 35.4145 45.4038 36.3174 43.8936 36.7667C42.5712 37.1641 40.9432 37.2678 39.7691 36.6889C39.2235 36.4211 38.9093 36.4167 37.9011 35.6866C36.8972 34.9565 36.2643 33.6907 35.9588 32.6496C35.4394 30.8826 35.5922 29.3058 36.6659 27.6123C37.7396 25.9188 38.6605 25.4004 40.1706 24.9511C42.3006 24.316 44.5265 24.7524 46.0366 26.2299C47.5468 27.7073 47.8261 28.485 48.1622 29.6341C48.6772 31.4011 48.3324 32.4336 47.3809 33.924ZM31.1578 29.5434C31.0574 31.9152 29.6825 33.0082 28.7005 34.0666C27.928 34.9004 26.2127 36.4513 25.8897 36.434C25.5798 36.4167 23.8383 34.4943 22.9611 33.6691C22.1143 32.8699 21.2501 31.8158 20.7919 30.4809C20.399 29.3447 20.7395 27.3488 22.5071 26.8088C23.8383 26.4027 25.0953 26.8779 25.6802 28.0098C25.8592 28.3554 25.9115 28.243 26.0992 28.1264C26.5313 27.8542 26.9896 27.0075 28.0851 26.8908C29.9575 26.6964 31.1927 28.6751 31.1578 29.5434ZM66.9299 30.9302C66.9299 26.1132 63.1764 22.1819 58.2269 22.1819C54.5694 22.1819 51.4444 24.5407 50.1568 27.7117C48.8562 24.4197 45.8315 22.1819 42.0474 22.1819C38.2153 22.1819 35.1295 24.3506 33.8638 27.7117C32.5981 24.3463 29.6302 22.1819 25.798 22.1819C20.8704 22.1819 17.1431 26.0441 17.1431 30.9302C17.1431 35.8206 20.8704 39.592 25.798 39.592C29.6302 39.592 32.5981 37.5141 33.8638 34.1487C35.1295 37.5141 38.2153 39.592 42.0474 39.592C45.8315 39.592 48.8562 37.4406 50.1568 34.1487C51.4444 37.3197 54.5694 39.5575 58.2269 39.5575C63.0323 39.5575 66.9299 35.6953 66.9299 30.9302Z" fill="#143755"/>
<path d="M80.6421 10.0043C81.1178 10.6999 81.3535 11.9225 81.3535 13.6808C81.3535 15.3916 81.1134 16.5969 80.629 17.2967C80.1489 17.9966 79.5116 18.3422 78.726 18.3422C77.9535 18.3422 77.3424 18.0009 76.8929 17.3227C76.439 16.6444 76.2164 15.4045 76.2164 13.6117C76.2164 11.8836 76.4433 10.6783 76.9016 9.99139C77.3555 9.30449 77.9709 8.95887 78.7435 8.95887C79.5335 8.96319 80.1663 9.3088 80.6421 10.0043ZM74.44 9.54209C73.3183 10.6437 72.7553 12.0089 72.7553 13.6376C72.7553 14.7176 73.004 15.6897 73.5016 16.5494C73.9992 17.4091 74.7062 18.0916 75.6315 18.5971C76.5525 19.1026 77.5738 19.3575 78.6824 19.3575C80.2536 19.3575 81.659 18.865 82.9029 17.8756C84.1468 16.8906 84.7666 15.4693 84.7666 13.6246C84.7666 12.4668 84.5309 11.4775 84.0552 10.6567C83.5794 9.83586 82.8549 9.17056 81.8816 8.65646C80.9083 8.14669 79.839 7.8918 78.6736 7.8918C76.9758 7.8918 75.5661 8.44046 74.44 9.54209ZM7.77964 6.0471L5.14342 12.3934H10.3897L7.77964 6.0471ZM9.8048 2.42682C10.0754 2.96252 9.98812 2.82427 10.0885 3.0446C10.2369 3.35997 15.7319 16.774 15.7319 16.774C15.9109 17.1931 16.1029 17.4782 16.308 17.6294C16.5175 17.7806 16.7925 17.854 17.1329 17.854C17.1329 17.854 17.2421 17.867 17.3686 17.867C17.4472 17.867 17.6087 17.8929 17.6698 17.9923C17.7222 18.0744 17.7265 18.1435 17.7309 18.2126C17.7353 18.2817 17.7353 18.3595 17.7309 18.4718C17.7265 18.5841 17.7003 18.7613 17.6218 18.8174C17.4952 18.9082 17.3425 18.8995 17.2202 18.8995C17.1111 18.8995 10.6865 18.9038 10.4246 18.8995C10.2587 18.8952 10.1933 18.8606 10.1234 18.7958C10.0449 18.7267 10.023 18.6317 10.0099 18.5237C9.99685 18.4157 10.0099 18.3163 10.0099 18.2126C10.0056 18.1305 10.0361 18.0484 10.0841 17.9793C10.1103 17.9448 10.1583 17.8756 10.3067 17.867C10.4202 17.8627 10.7301 17.8497 10.7301 17.8497C11.3019 17.8497 11.6947 17.7849 11.9085 17.6596C12.1224 17.5344 12.2315 17.3615 12.2315 17.1542C12.2315 16.99 12.1879 16.7956 12.0962 16.5796L10.8261 13.495H4.68951L4.10465 14.9034C3.86024 15.4909 3.73803 15.9229 3.73803 16.2081C3.73803 16.6962 3.91698 17.0937 4.27051 17.3961C4.6284 17.6985 5.11287 17.854 5.72828 17.854C5.72828 17.854 5.84612 17.8497 5.95524 17.867C6.06872 17.8843 6.1691 17.9577 6.20402 18.0182C6.23457 18.07 6.25203 18.191 6.24767 18.2515C6.24767 18.312 6.24767 18.3725 6.24767 18.4891C6.24767 18.6965 6.22148 18.7613 6.13855 18.8261C6.04253 18.8995 5.91159 18.8952 5.83303 18.9038C5.70646 18.8995 0.512597 18.9125 0.425305 18.9038C0.320555 18.8952 0.246357 18.8952 0.145971 18.8174C0.0630441 18.7483 0.00193982 18.623 0.00193982 18.4891C0.00193982 18.407 -0.00242477 18.3163 0.00193982 18.2472C0.00630441 18.1781 0.0193982 18.0787 0.0979608 18.0009C0.193982 17.9059 0.276909 17.9016 0.42094 17.8713C0.53442 17.8454 0.630441 17.8324 0.691545 17.8195C1.10618 17.7244 1.17601 17.7158 1.51209 17.4523C2.03147 16.9511 2.18423 16.6574 2.41992 16.0957C2.41992 16.0957 7.88875 2.86748 8.0066 2.58235C8.12444 2.29722 8.0677 2.41818 8.16808 2.21081C8.44742 1.63624 9.42945 1.67512 9.8048 2.42682ZM38.2707 9.87474C38.6504 9.23104 39.2003 8.90703 39.9161 8.90703C40.5228 8.90703 41.0203 9.14464 41.4132 9.62418C41.806 10.0994 42.0024 10.7733 42.0024 11.646C42.0024 12.0823 41.9325 12.3804 41.7929 12.5489C41.6532 12.7131 41.4175 12.7952 41.0945 12.7952H37.6247C37.6771 11.4905 37.8909 10.5184 38.2707 9.87474ZM44.2458 10.5012C43.818 9.6501 43.2245 9.00208 42.4563 8.5571C41.6881 8.11645 40.7716 7.8918 39.7022 7.8918C38.1615 7.8918 36.8609 8.44478 35.8003 9.54641C34.7397 10.648 34.2116 12.0262 34.2116 13.6678C34.2116 15.3095 34.7397 16.6617 35.7916 17.7115C36.8434 18.7613 38.2226 19.2883 39.9292 19.2883C41.0989 19.2883 42.094 19.0464 42.9015 18.5625C43.6173 18.1348 44.272 17.4695 44.835 16.5364C44.8786 16.463 44.9572 16.3377 44.9485 16.1778C44.931 15.9143 44.7128 15.668 44.4378 15.681C44.2109 15.6897 44.093 15.8884 44.0101 16.0093C43.4951 16.7567 42.9931 17.2838 42.4999 17.5948C41.9282 17.9534 41.3259 18.1348 40.6886 18.1348C39.8026 18.1348 39.0737 17.7849 38.5063 17.0807C37.9389 16.3809 37.6465 15.2879 37.6247 13.8104H44.2327C44.2327 13.8104 44.6386 13.8147 44.7521 13.7326C44.8437 13.6635 44.9092 13.4993 44.9048 13.3481C44.8394 12.2033 44.6211 11.2529 44.2458 10.5012ZM65.497 9.24832C64.6371 9.24832 63.9955 9.63282 63.5722 10.3975C63.223 11.0196 63.0484 12.0132 63.0484 13.3697C63.0484 14.5016 63.1444 15.3484 63.3365 15.91C63.5285 16.4673 63.8035 16.8863 64.1657 17.1585C64.5237 17.4307 64.9339 17.5689 65.3966 17.5689C66.1516 17.5689 66.7583 17.2406 67.221 16.5882C67.8364 15.7329 68.1463 14.6355 68.1463 13.3006C68.1463 12.0607 67.88 11.0757 67.3475 10.3456C66.8063 9.61553 66.1909 9.24832 65.497 9.24832ZM65.9683 0.672845C66.0949 0.551881 66.4528 0.52164 66.4528 0.52164L68.7529 0.430917C68.7529 0.430917 69.1807 0.417957 69.4644 0.404996C69.7873 0.392036 70.3155 0.469798 70.6603 0.884532C70.9221 1.19558 70.9963 1.48935 71.0225 1.96889C71.0487 2.44842 71.0225 2.96252 71.0225 2.96252V15.7977C71.0225 16.5018 71.0705 16.9771 71.1622 17.2233C71.2538 17.4695 71.3979 17.6424 71.5899 17.7504C71.7078 17.8152 71.8867 17.8627 72.1311 17.8886C72.2926 17.9059 72.441 17.8929 72.5632 18.0614C72.668 18.2083 72.6942 18.744 72.4585 18.852C72.2795 18.9298 72.0438 18.9168 71.8082 18.9168C71.6248 18.9168 70.5599 18.9254 69.9096 18.9168C69.4687 18.9125 69.1108 18.8563 68.897 18.6749C68.5871 18.4113 68.3863 18.1046 68.2728 17.7072C68.1768 17.3659 68.1157 17.0073 68.1157 17.0073C67.4654 17.8713 66.8718 18.4459 66.3437 18.731C65.8156 19.0162 65.1522 19.1587 64.3578 19.1587C62.9349 19.1587 61.774 18.6749 60.8792 17.7072C59.9845 16.7394 59.5349 15.4261 59.5349 13.7672C59.5349 11.9355 60.0107 10.4839 60.9578 9.40817C61.9049 8.33245 63.0833 7.79676 64.4931 7.79676C65.2482 7.79676 65.9203 7.96524 66.5095 8.29789C67.0988 8.63054 67.6356 9.17488 68.1157 9.92659V3.45502C68.1157 2.88476 68.0633 2.47434 67.9586 2.2281C67.8538 1.98185 67.7142 1.80904 67.5439 1.714C67.3694 1.61896 66.8063 1.56279 66.4703 1.57143C66.2477 1.58007 66.0643 1.51527 65.9596 1.38999C65.8112 1.21718 65.7981 0.84133 65.9683 0.672845ZM58.8366 17.88C58.9632 17.8886 59.0461 17.9232 59.1072 18.0268C59.1552 18.1089 59.1639 18.1435 59.1683 18.2385C59.1727 18.3293 59.1683 18.4632 59.1683 18.5496C59.1683 18.6317 59.1552 18.7829 59.0068 18.8736C58.9239 18.9254 58.7842 18.9254 58.6707 18.9254H53.3459C53.2587 18.9254 53.119 18.9125 53.0404 18.8347C52.975 18.7699 52.9095 18.6749 52.9051 18.5237C52.9008 18.4416 52.9051 18.3077 52.9051 18.2169C52.9051 18.1262 52.9269 18.0484 53.0055 17.975C53.0841 17.9016 53.1801 17.88 53.2543 17.8756C53.3852 17.8713 53.5642 17.8756 53.5642 17.8756C53.9133 17.8756 54.1708 17.7849 54.3411 17.6035C54.5113 17.422 54.5986 17.1585 54.5986 16.8172V12.2422C54.5986 11.4602 54.424 10.8641 54.0748 10.445C53.7257 10.0303 53.263 9.81858 52.6956 9.81858C51.9231 9.81858 51.2902 10.1124 50.8058 10.7042C50.3169 11.2917 50.0769 12.1558 50.0769 13.2877V16.8129C50.0769 17.1585 50.1642 17.422 50.3387 17.5992C50.5133 17.7806 50.7141 17.8627 51.0109 17.8713C51.0109 17.8713 51.3208 17.8886 51.4342 17.8886C51.5739 17.8929 51.6699 17.9059 51.7485 18.0052C51.7921 18.0614 51.8009 18.1176 51.8009 18.204C51.8052 18.2947 51.8096 18.407 51.8009 18.5366C51.7921 18.6662 51.7834 18.7656 51.683 18.8304C51.5696 18.9082 51.4299 18.9082 51.2859 18.9082C51.1462 18.9082 45.8083 18.9038 45.6905 18.9082C45.5901 18.9082 45.5333 18.8995 45.4504 18.8477C45.3413 18.7786 45.2933 18.6835 45.2933 18.5409C45.2933 18.4502 45.2933 18.3206 45.2933 18.2645C45.2933 18.204 45.2845 18.1565 45.3456 18.0225C45.4068 17.8972 45.5813 17.8627 45.6817 17.8627C45.7821 17.8627 46.1356 17.8627 46.1356 17.8627C46.463 17.8627 46.7074 17.772 46.8733 17.5905C47.0391 17.4091 47.122 17.1455 47.122 16.8042V10.5444C47.122 10.1858 46.9998 9.89634 46.7598 9.68466C46.5197 9.46865 46.1706 9.39521 45.8083 9.36497C45.5988 9.34769 45.5202 9.2656 45.4417 9.16192C45.3544 9.04528 45.2845 8.71263 45.5202 8.53118C45.7734 8.33245 46.0658 8.34973 46.0658 8.34973L48.4096 8.22445C48.4096 8.22445 48.977 8.15101 49.4353 8.41454C49.6579 8.54414 49.8368 8.85087 49.9197 9.2224C50.0027 9.60257 50.0289 10.0173 50.0681 10.4623C50.6748 9.6285 51.3208 9.0064 52.0104 8.59166C52.6956 8.17693 53.4201 7.97388 54.1839 7.97388C55.2183 7.97388 56.0345 8.32381 56.6325 9.01936C57.2217 9.71922 57.5185 10.6912 57.5185 11.9355V16.8215C57.5185 17.1974 57.6058 17.4652 57.776 17.6337C57.9462 17.7979 58.2168 17.88 58.5878 17.88C58.5878 17.8756 58.7318 17.8713 58.8366 17.88ZM32.8848 8.41886L29.5327 8.41454V4.66897C29.5327 4.66897 29.5327 4.39681 29.4324 4.27152C29.2054 3.98207 28.7384 4.0944 28.6205 4.22832C28.5027 4.36224 28.494 4.47025 28.4634 4.65169C28.2714 5.77925 27.9048 6.65192 27.3592 7.27834C26.4295 8.24173 25.4475 8.36269 24.6357 8.38862C24.2952 8.40158 21.515 8.41454 21.515 8.41454V4.66897C21.515 4.66897 21.515 4.39681 21.4146 4.27152C21.1877 3.98207 20.7206 4.0944 20.6028 4.22832C20.485 4.36224 20.4762 4.47025 20.4413 4.65169C20.2493 5.77925 19.9961 6.80744 19.4549 7.43386C18.905 8.06892 18.0495 8.32813 17.1199 8.52254C16.9846 8.55278 16.8798 8.57006 16.7663 8.6867C16.6092 8.85087 16.5612 9.18352 16.7139 9.38657C16.8842 9.61986 17.1941 9.6285 17.1941 9.6285H18.5471V16.113C18.5471 16.7049 18.6824 17.2535 18.953 17.7633C19.2236 18.2688 19.5858 18.6489 20.0441 18.9038C20.498 19.1587 21.0393 19.2883 21.6634 19.2883C22.3748 19.2883 23.0164 19.1155 23.5838 18.7699C24.1512 18.4243 24.5877 17.9361 24.8888 17.3011C25.1332 16.7956 25.286 16.1562 25.3471 15.3872C25.3646 15.1928 25.382 15.0373 25.2773 14.8775C25.142 14.6701 24.6575 14.6139 24.496 14.8386C24.3913 14.9855 24.3694 15.1799 24.352 15.3613C24.2079 16.9339 23.6667 17.7201 22.7327 17.7201C22.3661 17.7201 22.0737 17.5992 21.8511 17.3529C21.6285 17.111 21.515 16.7654 21.515 16.3247V9.6285H24.2647L25.2336 9.62418L26.5648 9.6285V16.113C26.5648 16.7049 26.7001 17.2535 26.9707 17.7633C27.2413 18.2688 27.6036 18.6489 28.0619 18.9038C28.5158 19.1587 29.057 19.2883 29.6811 19.2883C30.3926 19.2883 31.0342 19.1155 31.5972 18.7699C32.1646 18.4243 32.6011 17.9361 32.9022 17.3011C33.1466 16.7956 33.2994 16.1562 33.3605 15.3872C33.3779 15.1928 33.3954 15.0373 33.2907 14.8775C33.1554 14.6701 32.6709 14.6139 32.5094 14.8386C32.4046 14.9855 32.3828 15.1799 32.3654 15.3613C32.2213 16.9339 31.6801 17.7201 30.7461 17.7201C30.3795 17.7201 30.087 17.5992 29.8645 17.3529C29.6419 17.111 29.5284 16.7654 29.5284 16.3247V9.6285L32.4658 9.63282C32.4658 9.63282 32.6098 9.6285 32.7582 9.58529C33.2121 9.45137 33.5307 8.42318 32.8848 8.41886Z" fill="#143755"/>
</g>
<defs>
<clipPath id="clip0_12820_7524">
<rect width="84.7619" height="40" fill="white"/>
</clipPath>
</defs>
</svg>
