<?xml version="1.0" encoding="UTF-8"?>
<svg id="Layer_1" xmlns="http://www.w3.org/2000/svg" version="1.1" viewBox="0 0 170.1 56.7">
  <!-- Generator: Adobe Illustrator 29.1.0, SVG Export Plug-In . SVG Version: 2.1.0 Build 142)  -->
  <defs>
    <style>
      .st0 {
        fill: #00558d;
      }
    </style>
  </defs>
  <path class="st0" d="M89.6,27.9c-.4-.3-.4-1.1,0-1.7.5-.6,1.2-.8,1.6-.5.4.3.4,1.1,0,1.7-.5.6-1.2.8-1.6.5"/>
  <path class="st0" d="M100,33s-.2,0-1.3.1c-1.1.2-1.9.5-2.6.6-.6,0-1.4.2-1.7-.2-.3-.4-.1-.8.4-1.3.6-.6,1.5-1,2-1.2.5-.3.8-.6.8-1,0-.3-.2-.6-.5-.6-.4,0-.7-.1-1.5.3-.9.4-2.3,1.7-2.8,2.4-.4.7-.5,1.3-.3,1.9.2.6.7.9,1.4,1,.6,0,1.5.1,2.6,0,1.1-.2,1.7-.5,2.3-.8q.6-.4.9-.7c.3-.3.2-.4.2-.4"/>
  <path class="st0" d="M137.3,33s-.2,0-1.3.1c-1.1.2-1.9.5-2.6.6-.6,0-1.4.2-1.7-.1-.3-.4-.1-.8.4-1.3.6-.6,1.5-1,2-1.2.5-.3.8-.6.8-1,0-.3-.2-.6-.5-.6-.4,0-.7-.1-1.5.3-.9.4-2.3,1.7-2.8,2.4-.4.7-.5,1.3-.3,1.9.2.6.7.9,1.4,1,.6,0,1.5.1,2.6,0,1.1-.2,1.7-.5,2.3-.8q.6-.4.9-.7c.3-.3.2-.4.2-.4"/>
  <path class="st0" d="M34.7,44.6s13.2-17.2,20.6-29.6c0,0,1.7-2.8,5.8-2.8s5.3,1.8,5.3,4.5-5.4,5-5.4,6.2,1.7,1.5,1.7,3.8-4.5,11-16.6,12.2c0,0,6.1-2.6,10.4-6.1,4.3-3.5,4.6-6.1,4.6-6.9,0-1.7-2-2-2-3.6s5.4-3.7,5.8-6.1c.1-.8,0-1.4-.3-1.8-.8-1.1-2.3-1.2-3.6-.9-2.9.7-3.7,2-4,2.5-5.6,8.1-11.2,16.4-16.6,23.9,0,0-2.4,3.9-5.6,4.6"/>
  <path class="st0" d="M78.1,32.7c0-.2-.6-.3-1.3,0-.8.4-1.7.7-2.2-.2-.3-.6-.2-1.5,0-2.2.3-.8,1.5-2.4,1.5-3.4s-.2-1.3-.4-1.3-1.7,1.6-2.5,3.6c-.8,2-.9,3.2-.5,4,.4.9,1.6,1.9,2.8,1.9s2.9-1.5,2.5-2.4"/>
  <path class="st0" d="M85.1,32.7c0-.2-.6-.3-1.3,0-.8.4-1.7.7-2.2-.2-.3-.6-.2-1.5,0-2.2.3-.8,1.5-2.4,1.5-3.4s-.2-1.3-.4-1.3-1.7,1.6-2.5,3.6c-.8,2-.9,3.2-.5,4,.4.9,1.6,1.9,2.8,1.9s2.9-1.5,2.5-2.4"/>
  <path class="st0" d="M91.5,32.8c.3.2-.1,2.3-2.6,2.3s-1.9-1.9-1.9-2.1c0-.2,1.2-3.6,2.2-3.6s1,1.2.6,1.7c-.4.5-.9,1.1-.9,2.1,0,.5.7.4,1.1.2.6-.3,1.3-.7,1.5-.6"/>
  <path class="st0" d="M79.6,23.5c.4.8,5.1-.7,8.8-3,3-1.8-7.2,1.6-7.2,1.6,0,0-1.9.7-1.5,1.4"/>
  <path class="st0" d="M157.8,32.7c0-.2-.6-.3-1.3,0-.8.4-1.7.7-2.2-.3-.3-.6-.2-1.5,0-2.2.3-.8,1.5-2.4,1.5-3.4s-.2-1.3-.4-1.3-1.7,1.6-2.5,3.6c-.8,2-.9,3.2-.5,4,.4.9,1.6,1.9,2.8,1.9s2.9-1.5,2.5-2.4"/>
  <path class="st0" d="M152.4,23.5c.4.8,5.1-.7,8.8-3,3-1.8-7.2,1.6-7.2,1.6,0,0-1.9.7-1.5,1.4"/>
  <path class="st0" d="M140.4,35.1c-.3,0-.6,0-.8-.2-.2-.1-.3-.3-.3-.5-.2-1.4,2.4-4.7,3.6-6.3.2-.2.3-.4.4-.5,1-1.2,1.6-1.9,2.3-1.9s.4,0,.6.2c0,0,.1.1.1.2,0,.4-.5,1-.7,1.2h0c0,0-3.5,3.9-3.5,4.6,0,0,0,.1,0,.1,0,0,0,0,.1,0h0c.2,0,.7-.3,1.5-.8,1.1-.7,2.7-1.7,3.7-1.7,1.6,0,1.9,1.4,2,2.2h0c.1.7.6.8.8.8s0,0,0,0c0,.1,0,.3-.2.4-.1.1-.3.2-.6.2-.8,0-1.2-.6-1.5-1.2-.2-.4-.4-.7-.8-.7-.6,0-1.6.8-2.3,1.3-.1,0-.2.2-.3.2,0,0-.2.1-.4.3-.8.6-2.6,2.1-4,2.1"/>
  <path class="st0" d="M165.6,35.1c-.6,0-1.7-.3-1.9-.8.3,0,.9-.3,1.3-1.2.3-.6.3-1,.1-1.3,0-.1-.2-.3-.5-.3s-.4,0-.6.1c-1.7.7-2.3.9-2.6.9-.5,0-1.6-.6-1.6-1s0-.5.9-.7c.2,0,.4-.1.6-.2.7-.2,1.3-.4,1.8-.6.1,0,.2-.1.3-.2.4-.2.7-.3,1.1-.3s2.8,1.4,2.8,3.5-.5,2-1.6,2"/>
  <path class="st0" d="M117.9,27.5c-1.3,1.3-3.4,3.4-6.7,3.8,0,0,2.6-2.3,3.5-3.2,2.2-1.9,3.6-4.4,3.7-5,0-.7-.1-1.9,1.6-1,1.7,1-.8,4.2-2,5.4"/>
  <path class="st0" d="M66.5,33c-.7.5-1.4.9-1.9.9s-.3,0-.4-.2c0-.1-.1-.3-.1-.4,0-.4.5-1,1.2-1.6.7-.6,1.4-.9,1.9-.9s.4,0,.5.2c.3.5,0,1.1-1.2,2M72,33.9c-.1,0-.2,0-.3,0,0,0-1.1.2-1.6-.3-.5-.5-.8-1.5-.8-1.9,0-.3-.1-.8-.3-1.2,0-.1,0-.2-.1-.3,0,0,0,0,0,0,0,0,0,0,0,0,0,0,0,0,0,0-.8-1-2.8-.7-4.4.6-1.6,1.3-2.2,3-1.4,4,.7,1,2.6.7,4.2-.6,0,0,.1,0,.2-.1,0,0,.4-.3.6-.3s.5.4,1,.9c.5.5,1.1.7,1.9.7s1,0,1.1-.5c.1-.4,0-.6,0-.7"/>
  <path class="st0" d="M122.4,33c-.7.5-1.4.9-1.9.9s-.3,0-.4-.2c0-.1-.1-.3-.1-.4,0-.4.5-1,1.2-1.6.7-.6,1.4-.9,1.9-.9s.4,0,.5.2c.3.5,0,1.1-1.2,2M127.9,33.9c-.1,0-.2,0-.3,0,0,0-1.1.2-1.6-.3-.5-.5-.8-1.5-.8-1.9,0-.3-.1-.8-.3-1.2,0-.1,0-.2-.1-.3,0,0,0,0,0,0,0,0,0,0,0,0,0,0,0,0,0,0-.8-1-2.8-.7-4.4.6-1.6,1.3-2.2,3-1.4,4,.7,1,2.6.7,4.2-.6,0,0,.1,0,.2-.1,0,0,.4-.3.6-.3s.5.4,1,.9,1.1.7,1.9.7,1,0,1.1-.5c.1-.4,0-.6,0-.7"/>
  <path class="st0" d="M111.2,11.3s-.4-1.1-2.2-.9c-3.5.4-7.4,8.3-7.1,12.3.5,6.8,7.1,10.3,7.5,15.7.4,5.4-7.1,10.5-5.3,11.9.9.7,7.6-5.4,7.2-11.6-.4-5.6-7.1-9.7-7.4-14.8-.4-5.8,5.3-12.5,7.4-12.6"/>
  <path class="st0" d="M15.9,38.4c-.4-5.5-7-8.9-7.5-15.7-.2-2.4,1.2-6.2,3-9-5.1,2.4-8.6,7.7-8.6,13.8s5.2,13.6,12.1,15c.7-1.3,1.1-2.7,1-4.1"/>
  <path class="st0" d="M24.5,27.5c-1.3,1.3-3.3,3.4-6.7,3.8,0,0,2.5-2.3,3.4-3.1,2.2-1.9,3.6-4.4,3.7-5,0-.7-.1-1.9,1.6-1,1.7,1-.8,4.2-2,5.4M17.8,12.3c-.7,0-1.4,0-2.1.1-2.5,2.2-5.7,7.1-5.4,11.5.3,5.1,7,9.2,7.4,14.8,0,1.4-.2,2.7-.6,4,.2,0,.4,0,.6,0,8.3,0,14.9-6.8,14.9-15.2s-6.7-15.2-14.9-15.2"/>
</svg>