<?xml version="1.0" encoding="UTF-8"?>
<svg id="Layer_1" xmlns="http://www.w3.org/2000/svg" version="1.1" viewBox="0 0 766 278">
  <!-- Generator: Adobe Illustrator 29.1.0, SVG Export Plug-In . SVG Version: 2.1.0 Build 142)  -->
  <defs>
    <style>
      .st0 {
        fill: #0a0a3e;
      }
    </style>
  </defs>
  <path class="st0" d="M54,58c0-.9.5-1.4,1.4-1.4h53c3.3,0,6.3.5,9.1,1.6,2.8,1.1,5.2,2.7,7.2,4.7,2,2,3.7,4.5,4.8,7.4,1.2,2.9,1.8,6.2,1.8,9.8s.3,25.5,0,28.5c-.8,7.7-8,10.7-8,10.7,0,0,4.3,2.4,6.6,5.4,2.3,3,2.9,4.8,2.9,12.2s.8,26.9,0,30.8c-.8,3.8-2.3,7.1-4.3,10-2,2.8-4.8,5-8.1,6.7-3.4,1.6-7.6,2.5-12.8,2.5h-52.1c-.9,0-1.4-.5-1.4-1.4V58ZM73.8,111.2c0,.9.5,1.4,1.4,1.4h27.4c3.6,0,6.3-.8,7.8-2.4,2.8-3,2.3-8.7,2.3-8.7v-17.8s.2-4.6-3-7.1c-2-1.5-4.4-2.2-7.1-2.2h-27.4c-.9,0-1.4.5-1.4,1.4v35.5ZM73.8,167.7c0,.9.5,1.4,1.4,1.4h32.6c1.5,0,2.8-.4,3.8-1.2,1-.8,1.8-1.8,2.5-3.1.6-1.2,1.1-2.5,1.3-3.9.2-1.4.3-2.5.3-3.5,0-2.1-.3-19.4-.7-20.8-.5-1.4-1.1-2.5-1.9-3.3-.8-.8-1.6-1.4-2.6-1.7-1-.3-1.8-.5-2.7-.5h-32.6c-.9,0-1.4.5-1.4,1.4v35.3Z"/>
  <path class="st0" d="M229.7,105.7c0-3,.5-5.5,1.6-7.5,1.1-2,2.5-3.6,4.4-4.8,1.8-1.2,3.9-2,6.2-2.5,2.3-.5,4.7-.8,7.2-.8,3.9,0,7.1.2,9.5.7,2.5.5,4.5,1.5,6.1,3.1,1.6,1.6,2.8,4,3.7,7.2.9,3.2,1.8,7.5,2.7,13l7.4,45.1c0,.4.2,1,.3,1.8.1.8.3,1.6.5,2.5.2.8.5,1.5.7,2.2.2.6.4,1,.6,1s.4-.3.7-1c.3-.6.5-1.4.7-2.2.2-.8.4-1.6.5-2.4.2-.8.3-1.2.3-1.4l7.1-46.1c.8-5.3,1.7-9.5,2.7-12.6,1-3.1,2.2-5.5,3.8-7,1.6-1.5,3.7-2.5,6.2-3,2.5-.5,5.8-.7,9.8-.7,5.7,0,10.4,1.1,14,3.4,3.6,2.3,5.5,6.2,5.5,11.7v81.3c0,.9-.5,1.4-1.4,1.4h-17c-.9,0-1.4-.5-1.4-1.4v-74.3c0-.2,0-.6-.1-1.2,0-.6-.4-.9-.8-.9s-.8.2-1,.5c-.2.3-.4.7-.6,1,0,.2-.2.6-.3,1.2-.1.6-.3,1.3-.4,2.1-.1.7-.3,1.5-.4,2.2-.1.7-.3,1.3-.3,1.6-.5,2.3-1.1,4.7-1.6,7.2-.5,2.5-1.2,5.8-2.1,10-.9,4.1-2,9.4-3.3,15.8-1.3,6.4-3.1,14.6-5.2,24.6-.3,1.5-.7,2.9-1.4,4.2-.6,1.4-1.5,2.6-2.7,3.7-1.1,1.1-2.7,2-4.6,2.7-1.9.7-4.3,1-7.2,1s-4.8-.3-6.5-1c-1.7-.6-3.1-1.4-4.2-2.4-1.1-1-1.9-2-2.5-3.2-.5-1.2-1-2.3-1.2-3.4l-13.6-64.9c0-.2-.3-.7-.5-1.6-.2-.9-.5-1.3-.9-1.4h-.7c-.4,0-.5.3-.5,1v75.6c0,.9-.5,1.4-1.4,1.4h-17c-.9,0-1.4-.5-1.4-1.4v-80.9Z"/>
  <path class="st0" d="M343.1,111c0-6.2,1.7-11.2,5-15.1,3.4-3.9,8.2-5.8,14.6-5.8h46.2c1.2,0,1.8.5,1.8,1.4v15c0,.9-.5,1.4-1.4,1.4h-45.1c-.9,0-1.4.5-1.4,1.5v18.5c0,.9.5,1.4,1.4,1.4h41.9c.9,0,1.4.5,1.4,1.4v15.7c0,.9-.5,1.4-1.4,1.4h-41.9c-.9,0-1.4.5-1.4,1.4v19.8c0,.9.5,1.4,1.4,1.4h45.1c.9,0,1.4.5,1.4,1.4v15c0,.9-.5,1.4-1.4,1.4h-52.8c-1.6,0-3.3-.4-4.9-1.3-1.6-.9-3.1-2-4.4-3.3-1.3-1.4-2.3-2.9-3.1-4.6-.8-1.7-1.2-3.4-1.2-5.1v-62.6Z"/>
  <path class="st0" d="M463.6,186.5c0,.9-.5,1.4-1.4,1.4h-17.1c-.9,0-1.4-.5-1.4-1.4v-77.3c0-.9-.5-1.4-1.4-1.4h-22.2c-.9,0-1.4-.5-1.4-1.4v-15c0-.9.5-1.4,1.4-1.4h67c.9,0,1.4.5,1.4,1.4v15c0,.9-.5,1.4-1.4,1.4h-22.2c-.9,0-1.4.5-1.4,1.4v77.3Z"/>
  <path class="st0" d="M506.2,98.1c1.1-3.5,3.1-5.8,6-6.7,2.9-.9,6.9-1.4,11.9-1.4s9.3.5,12.2,1.4c3,.9,5,3.1,6.1,6.7l27.4,88.9c0,.5-.3.8-1,.8h-17.9c-.9,0-1.5-.4-1.8-1.2l-7.2-23.6c-.3-.9-.9-1.4-1.8-1.4h-32.1c-.9,0-1.5.5-1.8,1.5l-7.2,23.3c-.3.9-.9,1.4-1.8,1.4h-17.7c-.7,0-1.1-.3-1.1-.8l27.7-88.9ZM525.7,110.3c-.3-1-.5-1.7-.7-2-.2-.3-.5-.5-1-.5s-1,.8-1.5,2.5l-9.6,31.1c0,.2,0,.3,0,.4,0,0,0,.2,0,.3,0,.6.4,1,1.1,1h20.3c.7,0,1.1-.3,1.1-1s0-.2,0-.3c0,0,0-.2,0-.4l-9.5-31.1Z"/>
  <path class="st0" d="M641.5,171.5v15c0,.9-.5,1.4-1.4,1.4h-39.6c-.6,0-1.2,0-1.6-.1-7.6-.6-12.9-2.8-16.1-6.6-3.2-3.8-4.8-9.5-4.8-17.1v-72.6c0-.9.5-1.4,1.4-1.4h17.1c.9,0,1.4.5,1.4,1.4v74.2c0,3,1.8,4.5,5.3,4.5h37c.9,0,1.4.5,1.4,1.4Z"/>
  <path class="st0" d="M711.3,171.5v15c0,.9-.5,1.4-1.4,1.4h-39.6c-.6,0-1.2,0-1.6-.1-7.5-.6-12.9-2.8-16.1-6.6-3.2-3.8-4.8-9.5-4.8-17.1v-72.6c0-.9.5-1.4,1.4-1.4h17.1c.9,0,1.4.5,1.4,1.4v74.2c0,3,1.8,4.5,5.3,4.5h37c.9,0,1.4.5,1.4,1.4Z"/>
  <path class="st0" d="M231.1,203.7h479.6c.8,0,1.4.6,1.4,1.4v15c0,.8-.6,1.4-1.4,1.4H231.1c-.8,0-1.4-.6-1.4-1.4v-15c0-.8.6-1.4,1.4-1.4Z"/>
  <path class="st0" d="M710,56.6H162.7c-2.2,0-4.4.6-6.7,1.8-2.3,1.2-4.2,2.4-5.7,3.7-5.3,4.4-8.2,10.5-8.9,18.4-.2.8-.3,1.6-.3,2.5v2.6c0,2.1-.1,37.7.2,39.8.3,2.1.8,4.2,1.5,6.3.7,2,1.5,4,2.6,5.7,1,1.8,2.3,3.3,3.9,4.6,2.6,2.1,5.6,3.5,8.8,4.2,3.2.7,6.2,1.1,9.1,1.1h15.4c2.3,0,4.2.2,5.9.6,1.7.4,3,1.1,3.9,2.1,1.1,1.3,1.7,2.7,1.9,4.3.2,1.6,0,36.6,0,38.1s0,2-.1,2.9c0,.9-.4,1.9-.8,2.9-.5,1.1-1.2,2.3-2.2,3.6-1,1.3-2.2,2-3.5,2H55.4c-.9,0-1.4.5-1.4,1.4v15c0,.9.5,1.4,1.4,1.4h138c17.5,0,21-14.4,21-27v-42.9c0-5.5-2.3-12.5-8.1-17-2.7-2.1-5.5-3.7-8.6-4.4-3.1-.8-6-1.2-8.9-1.2h-15.3c-2.1,0-4,0-5.8-.3-1.8-.2-3.2-.8-4.2-1.8-1.1-1.2-1.7-2.5-1.9-4.1-.2-1.5,0-36.5,0-38s0-1.8.1-2.7c0-.9.4-1.8.8-2.7.5-1,1.2-2.1,2.3-3.2,1-1.1,2.2-1.7,3.5-1.7h541.6c.9,0,1.4-.5,1.4-1.4v-15c0-.9-.5-1.4-1.4-1.4Z"/>
</svg>