<svg width="193" height="60" viewBox="0 0 193 60" fill="none" xmlns="http://www.w3.org/2000/svg">
    <path d="M49.8535 45.1411H53.8626C56.0176 45.1411 57.1577 45.9931 57.1577 47.9601C57.1577 49.4009 56.6315 50.09 55.7545 50.5034C56.7192 50.8417 57.496 51.5057 57.496 53.1094C57.496 55.4397 56.1555 56.2165 54.0757 56.2165H49.8535V45.1411ZM53.9254 50.0524C55.316 50.0524 55.8923 49.4009 55.8923 48.0728C55.8923 46.7949 55.2158 46.2311 53.8126 46.2311H51.0813V50.0524H53.9254ZM54.0255 55.1265C55.3661 55.1265 56.2306 54.6755 56.2306 53.0593C56.2306 51.3428 54.7898 51.1173 53.9378 51.1173H51.0688V55.114H54.0255V55.1265Z" fill="#22346A" />
    <path d="M59.4111 52.3825V48.2104H60.6139V52.37C60.6139 54.5375 60.8018 55.3017 62.2426 55.3017C63.1823 55.3017 64.0218 54.9634 64.4853 54.7129V48.223H65.688V56.2289H64.4853V55.6651C63.8088 56.0284 63.057 56.3792 61.942 56.3792C59.8747 56.3667 59.4111 55.1639 59.4111 52.3825Z" fill="#22346A" />
    <path d="M67.9922 45.0029H69.195V46.4062H67.9922V45.0029ZM67.9922 48.2103H69.195V56.2036H67.9922V48.2103Z" fill="#22346A" />
    <path d="M72.7926 44.7275H71.5898V56.2164H72.7926V44.7275Z" fill="#22346A" />
    <path d="M74.8359 52.2699C74.8359 49.4509 75.7505 48.0477 78.1811 48.0477C78.8075 48.0477 79.6971 48.1729 80.1481 48.2606V44.7275H81.3508V56.2164H80.1481V55.6777C79.6219 55.9784 78.582 56.3793 77.7175 56.3793C76.1514 56.3667 74.8359 55.7278 74.8359 52.2699ZM80.1481 54.7004V49.2755C79.7347 49.2128 78.82 49.1001 78.2437 49.1001C76.5774 49.1001 76.0637 50.1901 76.0637 52.2699C76.0637 54.8633 76.9157 55.2893 77.8553 55.2893C78.6947 55.3018 79.6595 54.951 80.1481 54.7004Z" fill="#22346A" />
    <path d="M83.6533 45.0029H84.8561V46.4062H83.6533V45.0029ZM83.6533 48.2103H84.8561V56.2036H83.6533V48.2103Z" fill="#22346A" />
    <path d="M87.1621 48.2104H88.3649V48.7742C88.9036 48.4735 89.9685 48.0601 90.8456 48.0601C93.0381 48.0601 93.5393 49.1501 93.5393 51.9941V56.2163H92.3365V52.0191C92.3365 49.9143 92.111 49.125 90.62 49.125C89.7932 49.125 88.841 49.4633 88.3649 49.7139V56.2037H87.1621V48.2104Z" fill="#22346A" />
    <path d="M95.4062 57.5568C95.4062 56.6423 95.8448 56.1912 96.6717 55.5773C96.3835 55.3894 96.2206 54.9634 96.2206 54.4748C96.2206 54.2492 96.5213 53.6228 96.7594 53.2094C96.0828 52.9087 95.494 52.2697 95.494 50.7913C95.494 48.8243 96.7092 48.0601 98.4883 48.0601C99.0646 48.0601 99.7787 48.1728 100.155 48.2731L102.523 48.2104V49.2378L101.019 49.2002C101.307 49.5009 101.533 49.9519 101.533 50.8039C101.533 52.8836 100.493 53.5101 98.4507 53.5101C98.2878 53.5101 97.8493 53.4725 97.6739 53.4474C97.5487 53.7481 97.3858 54.2117 97.3858 54.362C97.3858 55.001 97.5361 55.1012 99.3277 55.1012C101.621 55.1012 102.435 55.5522 102.435 57.4566C102.435 59.2607 101.119 59.9999 98.8642 59.9999C96.3209 59.9749 95.4062 59.4111 95.4062 57.5568ZM101.182 57.4691C101.182 56.2539 100.656 56.1286 99.215 56.1286C98.8015 56.1286 97.9871 56.0784 97.486 56.0534C96.8094 56.5545 96.584 56.8427 96.584 57.4566C96.584 58.5591 97.0475 58.9601 98.8516 58.9601C100.468 58.9601 101.182 58.5341 101.182 57.4691ZM100.343 50.7913C100.343 49.5259 99.8414 49.0373 98.5008 49.0373C97.2479 49.0373 96.7218 49.5385 96.7218 50.7913C96.7218 52.0442 97.2479 52.5328 98.5008 52.5328C99.8414 52.5328 100.343 52.0442 100.343 50.7913Z" fill="#22346A" />
    <path d="M107.709 45.1411H111.756C114.174 45.1411 115.289 46.3063 115.289 48.7243C115.289 51.1298 114.174 52.4829 111.756 52.4829H108.937V56.2165H107.709V45.1411ZM111.743 51.3929C113.347 51.3929 114.036 50.4157 114.036 48.7243C114.036 47.0079 113.347 46.2311 111.743 46.2311H108.937V51.3929H111.743Z" fill="#22346A" />
    <path d="M116.578 52.2575C116.578 49.213 117.894 48.0479 119.923 48.0479C122.053 48.0479 123.156 49.1629 123.156 51.7939L123.068 52.7085H117.793C117.806 54.425 118.32 55.302 119.898 55.302C120.763 55.302 122.078 55.2268 122.83 55.1516L122.868 56.1164C122.091 56.2291 120.688 56.3669 119.748 56.3669C117.355 56.3669 116.578 54.9762 116.578 52.2575ZM121.94 51.7438C121.94 49.7643 121.327 49.0501 119.923 49.0501C118.558 49.0501 117.793 49.8018 117.793 51.7438H121.94Z" fill="#22346A" />
    <path d="M125.012 48.2105H126.214V49.3006C126.803 48.8871 128.006 48.2607 129.121 48.0352V49.2504C128.031 49.476 126.816 50.0022 126.214 50.3404V56.2164H125.012V48.2105Z" fill="#22346A" />
    <path d="M130.876 49.2505H129.861V48.2106H130.876V47.484C130.876 45.1787 131.465 44.5522 133.031 44.5522C133.432 44.5522 134.184 44.6149 134.647 44.665L134.635 45.6548C134.246 45.6423 133.607 45.6172 133.257 45.6172C132.367 45.6172 132.066 46.0181 132.066 47.484V48.1856H134.397V49.2255H132.066V56.1789H130.864V49.2505H130.876Z" fill="#22346A" />
    <path d="M135.349 52.1194C135.349 49.3631 136.251 48.0601 138.769 48.0601C141.312 48.0601 142.189 49.3756 142.189 52.1194C142.189 55.0261 141.475 56.3791 138.769 56.3791C136.088 56.3666 135.349 55.0261 135.349 52.1194ZM140.961 52.1194C140.961 49.9018 140.46 49.1 138.769 49.1C137.078 49.1 136.576 49.9018 136.576 52.1194C136.576 54.3871 136.877 55.3392 138.769 55.3392C140.661 55.3392 140.961 54.3871 140.961 52.1194Z" fill="#22346A" />
    <path d="M144.144 48.2105H145.346V49.3006C145.935 48.8871 147.138 48.2607 148.266 48.0352V49.2504C147.176 49.476 145.96 50.0022 145.346 50.3404V56.2164H144.144V48.2105Z" fill="#22346A" />
    <path d="M149.681 48.2104H150.883V48.7742C151.397 48.4735 152.374 48.0601 153.201 48.0601C154.279 48.0601 154.867 48.2981 155.293 48.8745C155.907 48.5237 157.085 48.0601 158.125 48.0601C160.305 48.0601 160.831 49.1 160.831 51.9941V56.2163H159.628V52.0191C159.628 49.9143 159.39 49.125 157.949 49.125C157.085 49.125 156.158 49.4633 155.707 49.7139C155.845 50.2902 155.895 51.1547 155.895 52.0442V56.2037H154.692V52.0818C154.692 49.8893 154.466 49.125 153.013 49.125C152.186 49.125 151.297 49.4633 150.871 49.7139V56.2037H149.668V48.2104H149.681Z" fill="#22346A" />
    <path d="M162.55 53.9235C162.55 52.3825 163.352 51.7059 164.993 51.5556L167.511 51.3175V50.6285C167.511 49.5134 167.01 49.1125 166.07 49.1125C165.256 49.1125 163.865 49.2378 163.051 49.3255L163.001 48.4109C163.753 48.273 165.131 48.0601 166.133 48.0601C167.937 48.0601 168.701 48.887 168.701 50.641V54.7253C168.739 55.2014 169.115 55.3768 169.629 55.427L169.578 56.3917C169.115 56.3917 168.752 56.3416 168.413 56.2163C168.138 56.116 167.887 55.9782 167.674 55.7527C167.048 56.0283 165.857 56.3917 164.792 56.3917C163.339 56.3666 162.55 55.5397 162.55 53.9235ZM167.499 54.8632V52.2196L165.131 52.4451C164.153 52.5453 163.765 53.0089 163.765 53.8859C163.765 54.8131 164.166 55.3518 164.98 55.3518C165.857 55.3643 166.922 55.0887 167.499 54.8632Z" fill="#22346A" />
    <path d="M171.067 48.2104H172.27V48.7742C172.809 48.4735 173.874 48.0601 174.751 48.0601C176.943 48.0601 177.444 49.1501 177.444 51.9941V56.2163H176.242V52.0191C176.242 49.9143 176.016 49.125 174.525 49.125C173.698 49.125 172.746 49.4633 172.27 49.7139V56.2037H171.067V48.2104Z" fill="#22346A" />
    <path d="M179.335 52.0693C179.335 49.1751 180.275 48.0601 182.668 48.0601C183.194 48.0601 184.221 48.1979 184.848 48.2981L184.797 49.2879C184.259 49.2252 183.357 49.125 182.906 49.125C181.064 49.125 180.575 49.9269 180.575 52.0693C180.575 54.4372 180.939 55.3017 182.931 55.3017C183.382 55.3017 184.259 55.2265 184.823 55.1639L184.873 56.1536C184.234 56.2539 183.194 56.3791 182.655 56.3791C180.087 56.3666 179.335 55.2014 179.335 52.0693Z" fill="#22346A" />
    <path d="M186.202 52.2575C186.202 49.213 187.518 48.0479 189.547 48.0479C191.677 48.0479 192.78 49.1629 192.78 51.7939L192.705 52.7085H187.43C187.443 54.425 187.956 55.302 189.535 55.302C190.399 55.302 191.715 55.2268 192.467 55.1516L192.504 56.1164C191.715 56.2291 190.324 56.3669 189.384 56.3669C186.992 56.3669 186.202 54.9762 186.202 52.2575ZM191.564 51.7438C191.564 49.7643 190.951 49.0501 189.547 49.0501C188.182 49.0501 187.417 49.8018 187.417 51.7438H191.564Z" fill="#22346A" />
    <path d="M83.2033 13.1552H80.5973L73.5687 33.2011C73.3808 33.7148 73.2053 33.8777 72.8545 33.8777H66.7154C66.3646 33.8777 66.1892 33.7148 66.0013 33.2011L58.9727 13.1552H56.3417C56.0034 13.1426 55.7528 12.8795 55.7528 12.5663V9.10837C55.7528 8.78262 56.016 8.50701 56.3542 8.50701H66.6779C67.0162 8.51954 67.2667 8.78262 67.2667 9.10837V12.5663C67.2667 12.8795 67.0161 13.1301 66.7154 13.1552C66.6904 13.1552 66.6779 13.1677 66.6528 13.1677H64.9615C65.4501 14.6336 69.5845 27.5381 69.6221 27.6258C69.6346 27.6759 69.6973 27.7511 69.785 27.7511C69.8727 27.7511 69.9353 27.6759 69.9479 27.6258C69.9729 27.5381 74.1199 14.6336 74.6085 13.1677H72.9172C72.8921 13.1677 72.8796 13.1677 72.8545 13.1552C72.5413 13.1301 72.3033 12.867 72.3033 12.5663V9.10837C72.3158 8.77009 72.5789 8.51951 72.8921 8.51951H72.9046H83.2157C83.554 8.53204 83.8046 8.79516 83.8046 9.12091V9.14595V12.5663C83.8046 12.9046 83.5415 13.1677 83.2157 13.1677L83.2033 13.1552ZM29.7182 1.80414H29.7056H26.2728C25.9595 1.80414 25.6964 2.05469 25.6839 2.36791C25.6839 2.38044 25.6839 2.39298 25.6839 2.41803C25.7215 3.11964 25.8217 4.8862 25.8217 4.9739C25.8217 5.03655 25.8217 5.13676 25.6964 5.14929C25.6338 5.14929 25.5711 5.11173 25.4709 5.02403C23.103 2.78139 19.8957 1.49092 16.2623 1.49092C6.69039 1.49092 0 8.24391 0 17.866C0 27.1372 6.66528 34.241 16.2122 34.241C16.6381 34.241 17.0767 34.2284 17.4776 34.2034L17.5653 34.1909C23.8046 33.79 27.6509 30.4197 29.5928 27.6384C29.8309 27.3001 29.9812 27.062 30.1441 26.7989L30.1566 26.7739C30.2193 26.6736 30.3571 26.4231 30.4198 26.2602C30.5075 26.0472 30.4448 25.734 30.1817 25.5586L26.9367 23.4162C26.6736 23.2408 26.3479 23.3034 26.1474 23.5665C26.1474 23.579 25.6087 24.2305 25.1451 24.7693C23.7043 26.4481 21.2738 28.4151 17.0266 28.6908C16.8637 28.7033 16.6758 28.7033 16.4878 28.7033H16.2748C10.3738 28.7033 5.9136 24.005 5.9136 17.9161C5.9136 10.2861 11.3135 6.36457 16.4127 6.36457C17.0767 6.36457 17.6906 6.37711 18.2544 6.45228C19.9583 6.6778 21.5244 7.45457 22.4139 8.24388C22.5642 8.3817 22.6269 8.51952 22.5267 8.60722C22.4891 8.64481 22.3638 8.63227 22.2886 8.63227H22.251C22.1633 8.63227 20.2339 8.5571 19.2692 8.51951C19.2441 8.51951 19.1564 8.51953 19.1314 8.53205C18.8432 8.58217 18.6427 8.80768 18.6302 9.10837V12.5538C18.6302 12.5788 18.6302 12.5914 18.6427 12.6164C18.6678 12.9046 18.8933 13.1301 19.1689 13.1552C19.194 13.1552 19.219 13.1677 19.2441 13.1677H29.7557C30.0815 13.1677 30.3446 12.9171 30.3446 12.5788V2.40549C30.307 2.07975 30.0439 1.81667 29.7182 1.80414ZM48.4611 26.1976C48.6741 25.9846 48.862 25.7591 49.05 25.5335V22.2259H46.1308C40.8311 22.2259 38.0247 23.5916 38.0247 26.1725C38.0247 27.8889 39.7036 29.0917 42.0965 29.0917C45.0408 29.0917 47.1832 27.5131 48.4611 26.1976ZM58.0581 29.8183V33.2387C58.0581 33.2512 58.0581 33.2512 58.0581 33.2637C58.0581 33.5644 57.8326 33.815 57.5319 33.8526C57.5068 33.8651 57.4693 33.8651 57.4442 33.8651H51.9692C50.2152 33.8651 49.8894 32.8753 49.8142 31.8104C49.8142 31.7603 49.7265 30.5199 49.7265 30.3696C49.714 30.2443 49.7015 30.1817 49.6764 30.1566C49.5762 30.0815 49.4383 30.1441 49.3381 30.2569C46.9576 33.0132 44.0886 34.2285 40.9063 34.2285C35.4187 34.2285 32.1487 31.1965 32.1487 26.6987C32.1487 21.4116 37.2855 17.7532 45.8927 17.7532H49.05C49.0124 14.6461 47.2082 13.0925 43.6876 13.0925C40.5429 13.0925 38.8015 14.2452 37.8744 14.8465C37.7366 14.9342 36.8846 15.5481 36.8846 15.5481C36.8344 15.5857 36.7843 15.6108 36.7091 15.6358C36.4961 15.711 36.2581 15.6609 36.1078 15.498L33.3389 12.9547C33.151 12.7166 33.1635 12.3909 33.364 12.1779C33.364 12.1779 33.4392 12.1028 33.5269 12.0276C33.6396 11.9273 34.0155 11.6016 34.2786 11.4011L34.3036 11.3761C35.5816 10.4113 39.0771 8.15621 43.8255 8.15621C51.2049 8.15621 54.7881 11.5891 54.7881 18.6427V29.242H57.4317C57.4442 29.242 57.4567 29.242 57.4692 29.242C57.795 29.217 58.0581 29.4926 58.0581 29.8183ZM138.029 29.2295H138.016H135.298V9.10837C135.298 8.78262 135.047 8.51951 134.709 8.51951H130.198C129.873 8.51951 129.61 8.78263 129.61 9.12091V30.9835C129.61 32.9129 130.599 33.8902 132.554 33.8902H138.016C138.041 33.8902 138.067 33.8902 138.092 33.8777C138.405 33.8526 138.63 33.5895 138.63 33.2763V29.8434C138.618 29.5051 138.355 29.242 138.029 29.2295ZM192.378 29.2295C192.353 29.2295 192.328 29.217 192.316 29.217H189.597V16.8511C189.597 11.3385 186.515 7.93069 181.203 8.19379C177.945 8.35667 175.603 9.87261 173.711 12.3157C173.686 12.3408 173.573 12.5036 173.385 12.4285C173.322 12.4034 173.297 12.2907 173.297 12.2405L173.247 9.96031C173.222 9.0833 172.646 8.50701 171.794 8.50701H165.567C165.241 8.50701 164.978 8.77009 164.978 9.10837V12.5663C164.978 12.8795 165.229 13.1426 165.542 13.1552C165.555 13.1552 165.58 13.1677 165.592 13.1677H168.248V29.242H165.567C165.241 29.242 164.978 29.5177 164.978 29.8434V33.3013C164.978 33.6271 165.241 33.9027 165.567 33.9027H176.555C176.88 33.8902 177.131 33.6271 177.131 33.3264V29.8559C177.131 29.5678 176.931 29.3297 176.655 29.2671C176.617 29.2545 176.58 29.2546 176.542 29.2546H173.961V17.3899C174.462 16.5003 176.154 14.1073 178.998 13.6939C181.691 13.3055 183.884 14.5458 183.884 17.4149V31.0086C183.884 32.9255 184.874 33.9027 186.828 33.9027H192.291C192.617 33.9027 192.88 33.6396 192.88 33.2888V29.8559C192.905 29.5176 192.679 29.2671 192.378 29.2295ZM101.558 18.1541C101.395 15.2349 98.9769 13.0674 95.7695 13.0674C92.938 13.0674 89.9061 14.9092 89.43 18.1541H101.558ZM107.446 28.0142C107.346 28.2522 107.158 28.5404 107.045 28.7158L107.008 28.7785C106.983 28.8286 103.738 34.2159 96.0327 34.2159C88.553 34.2159 83.3285 28.6281 83.3285 21.0858C83.3285 12.867 89.4801 8.14367 95.5566 8.14367C99.3402 8.14367 102.009 9.32135 104.064 11.4136C106.143 13.5435 107.321 16.6507 107.384 20.4093C107.396 20.6724 107.396 21.2612 107.359 21.7123C107.359 21.7749 107.346 21.8877 107.309 22.1257C107.258 22.4515 107.02 22.6519 106.707 22.6519H89.2296C89.5553 27.1622 93.0884 29.1042 96.2707 29.1042C100.618 29.1042 103.337 25.8467 103.512 25.6338L103.55 25.5836C103.8 25.2829 104.114 25.2203 104.402 25.4082L107.208 27.275C107.509 27.4629 107.547 27.7887 107.446 28.0142ZM144.494 21.1359C144.494 25.759 147.463 29.1042 151.547 29.1042C155.632 29.1042 158.601 25.759 158.601 21.1359C158.601 15.9992 155.055 13.2804 151.547 13.2554C148.039 13.293 144.494 15.9992 144.494 21.1359ZM164.389 21.0858C164.389 28.816 159.102 34.2159 151.547 34.2159C143.98 34.2159 138.705 28.816 138.705 21.0858C138.705 13.4934 143.98 8.16873 151.547 8.14367C159.115 8.16873 164.389 13.4934 164.389 21.0858ZM126.528 8.44434C126.177 8.40676 125.625 8.39424 125.225 8.4193C121.165 8.71999 118.998 11.1881 117.908 13.3681C117.845 13.5059 117.72 13.5436 117.62 13.5185C117.57 13.506 117.532 13.4433 117.532 13.3932L117.432 9.96031C117.382 9.05824 116.818 8.51951 115.928 8.51951H109.626C109.301 8.51951 109.037 8.78264 109.037 9.13345V12.5788C109.037 12.9046 109.301 13.1677 109.626 13.1677H112.295V29.242H109.626C109.301 29.242 109.037 29.4926 109.037 29.8309V33.2888C109.037 33.577 109.25 33.8276 109.539 33.8777C109.576 33.8902 109.614 33.8902 109.651 33.8902H120.589C120.627 33.8902 120.664 33.8902 120.702 33.8777C120.977 33.8401 121.178 33.6146 121.203 33.3264C121.203 33.3139 121.203 33.2888 121.203 33.2763V29.8559C121.203 29.8183 121.19 29.7808 121.19 29.7683C121.153 29.5051 120.952 29.3047 120.714 29.2671C120.677 29.2545 120.639 29.2546 120.601 29.2546H118.046V22.2134C118.046 18.1541 120.175 15.3978 124.034 14.4456C124.861 14.2452 125.976 14.2201 126.415 14.2201C126.766 14.2201 127.116 14.0196 127.116 13.6187V9.09586C127.129 8.72 126.916 8.48193 126.528 8.44434ZM129.083 3.42032C129.083 1.52848 130.599 0 132.466 0C134.333 0 135.849 1.54101 135.849 3.42032C135.849 5.2871 134.371 6.75296 132.466 6.75296C130.574 6.75296 129.083 5.2871 129.083 3.42032Z" fill="#22346A" />
</svg>
