<?xml version="1.0" encoding="UTF-8"?>
<svg id="Layer_1" xmlns="http://www.w3.org/2000/svg" version="1.1" xmlns:xlink="http://www.w3.org/1999/xlink" viewBox="0 0 502.2 119.2">
  <!-- Generator: Adobe Illustrator 29.1.0, SVG Export Plug-In . SVG Version: 2.1.0 Build 142)  -->
  <defs>
    <style>
      .st0 {
        fill: #1d1d1b;
      }

      .st1 {
        fill: none;
      }

      .st2 {
        fill: #006eb7;
      }

      .st3 {
        clip-path: url(#clippath);
      }
    </style>
    <clipPath id="clippath">
      <rect class="st1" x="3.3" y="8.3" width="478.8" height="104.3"/>
    </clipPath>
  </defs>
  <polygon class="st0" points="158.7 81.5 158.7 63.2 140.7 63.2 140.7 81.5 130.1 81.5 130.1 37.6 140.7 37.6 140.7 53.8 158.7 53.8 158.7 37.6 169.3 37.6 169.3 81.5 158.7 81.5"/>
  <polygon class="st0" points="175 81.5 175 37.6 209.1 37.6 209.1 47 185.4 47 185.4 54.5 205.5 54.5 205.5 62.9 185.4 62.9 185.4 72.2 209.1 72.2 209.1 81.5 175 81.5"/>
  <g class="st3">
    <path class="st0" d="M235.3,47h-9.9v10.9h9.9c3.4,0,6-2,6-5.5s-2.6-5.4-6-5.4M241.6,81.5l-7.9-15.2h-8.2v15.2h-10.5v-43.9h20.6c10.9,0,16.5,5.8,16.5,14s-4.1,10.8-8.2,12.7l9.4,17.3h-11.7Z"/>
    <path class="st0" d="M277.4,47h-9.9v10.9h9.9c3.4,0,6-2,6-5.5s-2.6-5.4-6-5.4M283.6,81.5l-7.9-15.2h-8.2v15.2h-10.5v-43.9h20.6c10.9,0,16.5,5.8,16.5,14s-4.1,10.8-8.2,12.7l9.4,17.3h-11.7Z"/>
    <polygon class="st0" points="339.7 81.5 339.7 48.7 329 81.5 320.5 81.5 310 49 310 81.5 299.8 81.5 299.8 37.6 314.9 37.6 325 68.4 334.9 37.6 350 37.6 350 81.5 339.7 81.5"/>
    <path class="st0" d="M375.6,46.4l-5.5,17.3h11l-5.5-17.3ZM386.6,81.5l-3-9.4h-15.8l-3,9.4h-11.5l16.3-43.9h12.6l16.2,43.9h-11.7Z"/>
    <polygon class="st0" points="427.8 81.5 411.4 51.5 411.4 81.5 401.3 81.5 401.3 37.6 414.4 37.6 430.4 67 430.4 37.6 440.4 37.6 440.4 81.5 427.8 81.5"/>
    <path class="st0" d="M481.2,45.7l-7.9,4.9c-2.6-3.7-6.8-5.3-10.9-5.3s-6.3,1.3-6.3,4.2,4.2,3.9,9,4.7c9.2,1.7,17,4.4,17,13.5s-6.7,14.6-18.5,14.6-16.9-4.1-20.4-11l8.3-4.4c2.9,5,7.6,6.8,12.6,6.8s7.7-1.7,7.7-4.6-4.3-4.4-9.6-5.3c-9-1.6-16.6-4.4-16.6-13.7s6.9-13.5,17-13.5,14.2,2.4,18.6,8.9"/>
    <path class="st2" d="M36.4,89.2C3,56.7,37.7,6.6,71.9,20.3c9.8,3.9,13.1,13.7,10.2,21.9-3.2,9.2-12.7,14.5-24.9,11.3,4.6-4.7,7.2-13.2.9-15.7-9.7-3.8-31.2,15.6-21.8,51.5"/>
    <path class="st2" d="M91.9,29.9c33.4,32.5-1.2,82.7-35.5,69-9.8-3.9-13.1-13.7-10.2-21.9,3.2-9.2,12.7-14.5,24.9-11.3-4.6,4.7-7.2,13.2-.9,15.7,9.7,3.8,31.2-15.6,21.8-51.5"/>
  </g>
</svg>