<?xml version="1.0" encoding="UTF-8"?>
<svg id="INGSVA" xmlns="http://www.w3.org/2000/svg" version="1.1" viewBox="0 0 339.9 92">
  <!-- Generator: Adobe Illustrator 29.1.0, SVG Export Plug-In . SVG Version: 2.1.0 Build 142)  -->
  <defs>
    <style>
      .st0 {
        fill: #006e89;
      }

      .st1 {
        fill: #004364;
      }
    </style>
  </defs>
  <g>
    <path class="st1" d="M66.4,27.2c-.3.1-.5.2-.8.4-2.4,1.2-4.6,2.6-6.1,4.3-1.8,1.9-2.7,3.9-2.8,5.9,0,2.3.9,4.6,3.1,6.7,2.4,2.4,6.2,4.5,11.2,6.1.4.1.8.3,1.3.4.5-2,.7-4.1.7-6.2,0-6.7-2.5-12.8-6.5-17.6Z"/>
    <path class="st1" d="M68.1,60.1c-1.8-.5-3.5-1.1-5.1-1.7-6.6-2.6-11.3-5.9-13.8-9.5-2.2-3.2-2.8-6.4-1.9-9.5.7-2.7,2.5-5.2,5.3-7.6,2.4-2,5.3-3.7,8.5-5.1,1.2-.5,2.4-1,3.6-1.4-.4-.4-.9-.8-1.3-1.2-2,.6-3.9,1.3-5.7,2-3.8,1.5-7.4,3.4-10.5,5.7-3.6,2.7-6.3,5.7-7.8,9-1.8,3.9-1.9,8.1,0,12.3,2.3,5,7.4,9.8,15.5,13.6,1.3.6,2.6,1.2,4,1.7,3.7-2,6.8-4.8,9.2-8.2Z"/>
    <path class="st1" d="M23.9,59.6c-.9-6,.8-11.7,4.4-16.8,2.9-4.1,7-7.8,11.9-11,4.1-2.6,8.7-4.8,13.2-6.5,2.7-1,5.4-1.8,8.2-2.6-4.4-3.1-9.7-4.9-15.5-4.9-14.8,0-26.9,12-26.9,26.9s1.8,10.9,4.8,15.3c0-.1,0-.3,0-.4Z"/>
  </g>
  <g>
    <path class="st0" d="M96.2,24c-1.5,0-2.6.3-4.1,1.1-1.5.9-2.3,3.1-2.3,3.1l-1.1,3.5h0s-10.3,33.6-10.3,33.6h12.5l12.5-41.3h-7.3Z"/>
    <path class="st0" d="M132.8,47.9l7.3-23.9h11.9l-12.4,41.3h-14.7l-5.8-28.7-8.6,28.7h-12.2l12.4-41.3h12.4c2.7,0,5.5,1.7,6,4.3l3.8,19.6Z"/>
    <path class="st0" d="M165.3,55.7c2.5.4,5.1.2,7.7.2l3.1-9.4h12.4l-6,18.8h-2.5c-7.4,1.1-14.8,1.2-22.2.4-6.9-.7-8.5-8.5-7.5-14.1,1.3-7.3,3.8-14.2,7.2-20.7,2.1-3.9,6.7-7,11.2-7h24.5l-3,9.9h-18.3c-1.1,0-2.2.7-2.7,1.7-3.1,5.4-5,11.5-5.7,17.6-.1,1.1.8,2.5,1.9,2.7Z"/>
    <path class="st1" d="M211.5,23.8c-2.3,0-4.1,0-5.3.2-3.8.4-6.9,1.8-9.1,4.3-2.2,2.4-3.6,5.2-4.2,8.1-.4,1.8-.4,3.6,0,5.3.4,1.9,1.3,3.5,2.5,4.7,1.9,1.9,5.2,2.8,10,2.8h7.1c2.2,0,3.1.3,3.4.5.6.4,1.2.9.9,2.5-.2,1.2-.9,2-2,2.6-.5.2-1.7.7-5.1.7h-17.6l-3.1,9.8h0c0,0,21.2,0,21.2,0,3,0,5.3-.1,6.9-.4,3.5-.6,6.4-2.3,8.7-5.3,1.6-2,2.6-4.4,3.1-6.9.5-2.3.4-4.6,0-6.6-.7-2.8-2.6-4.8-5.6-5.9-1.6-.6-4.1-.9-7.4-.9h-6.2c-2.6,0-3.7-.3-4.1-.5-.3-.2-.9-.4-.6-2,.4-2,1.4-2.5,2.2-2.7.5-.1,1.8-.3,4.8-.3h17.3l3.1-9.8h0c0,0-20.9,0-20.9,0Z"/>
    <path class="st1" d="M266.5,23.9h13l-20.1,33.8c-4.5,7.5-9,7.5-10.1,7.5h-12l-2.4-41.3h11.2l2.4,32.2,17.9-32.1Z"/>
    <path class="st1" d="M293.8,65.3h4.4c.3,0,3.8-.1,5.4-1.7,1.3-1.3,1.6-3.3,1.6-4.2V23.9h-12c-1.1,0-5.6.4-10.1,7.9l-20.1,33.5h13l5-8.8h12.7v8.8ZM285.3,49l8.7-15.6v15.6h-8.7Z"/>
  </g>
</svg>