<svg width="180" height="40" viewBox="0 0 180 40" fill="none" xmlns="http://www.w3.org/2000/svg">
<g clip-path="url(#clip0_4550_17942)">
<path d="M179.965 0H-0.0140991V40H179.965V0Z" fill="#FDC100"/>
<path d="M48.381 29.3616L48.4092 19.4427L48.3387 19.4286L42.6667 29.3616H34.9912L47.7884 10.6385H54.0388V21.164L54.1517 21.1781L61.4039 10.6385H67.7249V29.3616H60.7972L61.4039 19.1041H61.3475L54.5468 29.3616H48.381Z" fill="#101820"/>
<path d="M93.9118 24.3527C96.127 23.2381 96.9453 21.4462 96.9594 17.8483C96.9594 10.6385 93.0088 10.6385 87.7319 10.6385H79.0123V29.3616H85.4462L85.1922 24.9312H88.1411L90.4127 29.3616H97.7778L93.9118 24.3527ZM88.8042 20.4162H85.0652L84.8818 15.2945H88.8889C90.6102 15.2945 91.5979 15.2945 91.5979 17.8483C91.5979 20.4021 90.4691 20.4162 88.776 20.4162" fill="#101820"/>
<path d="M98.836 10.6385H105.397L105.228 18.7513H105.397C105.645 17.9892 106.028 17.2773 106.526 16.649L110.42 10.6385H118.039L111.083 19.7531L118.787 29.3616H110.589L106.751 23.7178C106.171 23.0659 105.695 22.3282 105.34 21.5309H105.171L105.355 29.3757H98.836V10.6385Z" fill="#101820"/>
<path d="M129.623 10.6385H119.619V29.3616H126.138L126.025 26.6102H134.998L137.227 29.3616H144.959L129.623 10.6385ZM125.912 21.9259L125.587 14.8713L131.231 21.9259H125.912Z" fill="#101820"/>
<path d="M76.6279 10.6243H70.1094V29.3615H76.6279V10.6243Z" fill="#101820"/>
</g>
<defs>
<clipPath id="clip0_4550_17942">
<rect width="179.979" height="40" fill="white"/>
</clipPath>
</defs>
</svg>
