<?xml version="1.0" encoding="UTF-8"?>
<svg id="Livello_1" xmlns="http://www.w3.org/2000/svg" version="1.1" viewBox="0 0 561.7 381.2">
  <!-- Generator: Adobe Illustrator 29.1.0, SVG Export Plug-In . SVG Version: 2.1.0 Build 142)  -->
  <defs>
    <style>
      .st0, .st1 {
        fill: #147aac;
      }

      .st1 {
        fill-rule: evenodd;
      }
    </style>
  </defs>
  <g>
    <path class="st0" d="M7.5,302.5v-36.1c19.7,6.7,31.7,10.6,46.7,10.6s21.1-3.7,21.1-11.2-4.8-11.2-26.9-16.8C15.4,240.4,0,227.9,0,201.1s18.1-43.5,56.8-43.5,32.5,2.2,47,5.2v35.2c-15.9-5.6-30.1-9.4-46.6-9.4s-18.3,3-18.3,9.9,4.2,10.8,26.1,16.6c34.3,9.1,49,21.3,49,47.6s-20.3,45.5-57.4,45.5c-23.3-.2-36.9-3.1-49.1-5.7Z"/>
    <path class="st0" d="M375.8,161.5h-44.6l-50.4,142.9h35.1l8.9-27.4h57.8l9.5,27.4h34.7l-51-142.9ZM334.1,249.7l19.3-58,20.1,58h-39.5Z"/>
    <polygon class="st0" points="527.7 161.5 527.7 245 478.5 161.5 436.8 161.5 436.8 304.4 471.3 304.4 471.1 216.6 522.7 304.4 561.7 304.4 561.7 161.5 527.7 161.5"/>
    <polygon class="st0" points="264 161.5 245.4 251.7 222.6 161.5 201.3 161.5 173.7 253 154.6 161.5 119.4 161.5 154.2 304.4 187.7 304.4 211 230.8 230.8 304.4 264.4 304.4 299.2 161.5 264 161.5"/>
  </g>
  <g>
    <path class="st0" d="M153.7,34.7h-30.4l-34.3,97.3h23.9l6-18.7h39.4l6.5,18.7h23.6l-34.7-97.3ZM125.3,94.7l13.2-39.5,13.7,39.5h-26.9Z"/>
    <polygon class="st0" points="61.9 34.7 61.9 91.5 28.4 34.7 0 34.7 0 132 23.5 132 23.4 72.2 58.5 132 85.1 132 85.1 34.7 61.9 34.7"/>
    <path class="st0" d="M214.2,34.7v63.8s-1.2,16.1,18.4,16.6c0,0,17.3,1.7,17.7-16.8v-63.6h23.8l-.3,71.3s1.2,29-41.2,28.9c0,0-37.3,3.8-41.9-27.4V34.7h23.5Z"/>
    <polygon class="st0" points="281.6 34.7 360.4 34.7 360.4 54.5 334.2 54.5 333.9 132 309.8 132 309.8 54.3 281.9 54.3 281.6 34.7"/>
    <path class="st0" d="M535.8,88.4c23.5-5.5,21.9-25.4,21.9-25.4.4-29.3-34.5-28.4-34.5-28.4h-51.6v97.3h23.9v-40h15.5l24.3,40h26.5l-25.9-43.5ZM519.9,74.8h-25.4v-22.7c-.1,0,27.7,0,27.7,0,0,0,10.1,1.6,9.8,11.3,0,0,1.1,10.1-12.1,11.4Z"/>
    <path class="st0" d="M463.3,84.2c0-55.1-50.5-52.6-50.5-52.6-50.8,1.9-50,50.5-50,50.5.8,54.8,51.1,52.8,51.1,52.8,52.6-2.7,49.5-50.8,49.5-50.8ZM413.7,113.9s-25.1,2.7-25.8-30.9c0,0-1.1-30.1,25.4-30.4,0,0,25.1-1.9,25.3,30.6,0,0,2,30.8-24.9,30.6Z"/>
  </g>
  <g>
    <path class="st1" d="M0,12.5L4.9,1.7l73.2.2-4,8.5L0,12.5Z"/>
    <path class="st1" d="M81.5,10.6l4.3-9h14l-4,9.1h-14.3Z"/>
    <path class="st1" d="M102.7,10.4l4.3-9.1,358.4.3-4.9,9.1-357.8-.3Z"/>
    <path class="st1" d="M489.8,10.6l3.4-8.4s14.7-2.2,18-2.2,50.5,7.2,50.5,7.2c0,0-52.2,6.5-54.4,6.5s-17.6-3.1-17.6-3.1Z"/>
    <path class="st1" d="M467.9,10.6l4.1-9h14.6l-4.2,9h-14.5Z"/>
  </g>
  <g>
    <rect class="st0" y="329.1" width="561.7" height="26"/>
    <rect class="st0" y="365.5" width="561.7" height="15.7"/>
  </g>
</svg>