<?xml version="1.0" encoding="UTF-8"?>
<svg id="Layer_1" xmlns="http://www.w3.org/2000/svg" version="1.1" viewBox="0 0 621.7 119.2">
  <!-- Generator: Adobe Illustrator 29.1.0, SVG Export Plug-In . SVG Version: 2.1.0 Build 142)  -->
  <defs>
    <style>
      .st0 {
        fill: #1d1d1b;
      }

      .st1 {
        fill: #ef7d00;
      }
    </style>
  </defs>
  <polygon class="st0" points="155.3 81.6 142.2 54.5 142.2 81.6 130.5 81.6 130.5 37.6 145.9 37.6 158.5 64.1 158.5 37.6 170.1 37.6 170.1 81.6 155.3 81.6"/>
  <path class="st0" d="M196.9,48.1c-6.5,0-9.7,5.4-9.7,11.4s3.2,11.4,9.7,11.4,9.9-5.3,9.9-11.4-3.3-11.4-9.9-11.4M196.9,82.4c-14.1,0-22.4-10.1-22.4-22.8s8.2-22.8,22.4-22.8,22.5,10.3,22.5,22.8-8.4,22.8-22.5,22.8"/>
  <path class="st0" d="M243.8,48.7h-8.3v9h8.3c2.6,0,4.8-1.6,4.8-4.6s-2.2-4.4-4.8-4.4M248.6,81.6l-7.1-14.2h-6.1v14.2h-12.2v-44.1h20.8c11.4,0,16.9,6.1,16.9,14.6s-4.1,10.9-7.7,12.8l8.9,16.7h-13.5Z"/>
  <path class="st0" d="M285.3,48.7h-6.1v21.8h6.1c6.6,0,10-4.1,10-10.9s-3.4-10.9-10-10.9M285.3,81.6h-18.4v-44.1h18.4c14.8,0,22.5,9.6,22.5,22s-7.8,22-22.5,22"/>
  <rect class="st0" x="313.2" y="37.6" width="12.2" height="44.1"/>
  <path class="st0" d="M373.1,69.4c-4,8.1-10.6,13-20,13s-21.9-9-21.9-23,9.1-22.7,21.9-22.7,15,3.2,19.8,11.9l-9.7,5.5c-2.5-4.8-5.7-6.7-9.8-6.7-6.1,0-9.7,5.4-9.7,12s3.6,12.2,9.7,12.2,7.3-2.6,9.4-7.2l10.3,4.9Z"/>
  <polygon class="st0" points="379.8 81.6 379.8 37.6 385.8 37.6 385.8 75.9 409.7 75.9 409.7 81.6 379.8 81.6"/>
  <rect class="st0" x="416.4" y="37.6" width="6" height="44.1"/>
  <path class="st0" d="M436.3,59.6c0,10.3,5.6,17.2,14.6,17.2s13.3-4.8,13.9-12.4h-13.9v-5.4h19.6c.1.9.3,1.9.3,3.3,0,10.7-7.2,20.1-19.8,20.1s-21-9.7-21-22.9,8.3-22.8,20.8-22.8,13,3.2,16.9,8.9l-4.8,3.4c-2.6-4.2-6.6-6.6-12-6.6-9.1,0-14.6,6.9-14.6,17.1"/>
  <polygon class="st0" points="507.2 81.6 507.2 61.1 483.9 61.1 483.9 81.6 477.9 81.6 477.9 37.6 483.9 37.6 483.9 55.5 507.2 55.5 507.2 37.6 513.2 37.6 513.2 81.6 507.2 81.6"/>
  <polygon class="st0" points="539.8 43.2 539.8 81.6 533.8 81.6 533.8 43.2 519.2 43.2 519.2 37.6 554.4 37.6 554.4 43.2 539.8 43.2"/>
  <path class="st0" d="M589,44.6l-4.6,3.4c-2.7-3.7-6.9-5.7-11.8-5.7s-8.6,1.7-8.6,6.4,4.4,5.8,9.9,7.1c8.3,2,15.9,4.3,15.9,13.2s-6.4,13.5-16.3,13.5-14.2-3.6-17.5-9.1l5-3.2c3,4.8,7.9,6.9,12.9,6.9s9.7-2.8,9.7-7.5-4.9-6.2-11.5-7.7c-7.3-1.6-14.2-4.1-14.2-12.4s6.4-12.5,15-12.5,12.4,2.7,16.1,7.8"/>
  <path class="st1" d="M82.1,20.8c-20,8.1-33.2,22.4-33.2,38.8s13.3,30.7,33.2,38.8c2.1,2.3,4.3,4.5,6.6,6.7-35.8-2.2-63.7-21.7-63.7-45.5S53,16.3,88.7,14.1c-2.3,2.2-4.5,4.4-6.6,6.7M93.1,29c7.9,9,12.4,19.4,12.4,30.6s-4.5,21.6-12.4,30.6c-.2-.6-.4-1.2-.6-1.8,4.7-8.8,7.1-18.6,7.1-28.8s-2.4-20-7.1-28.8c.2-.6.4-1.2.6-1.8M94.7,105.3c-13.5-13.3-23.5-29-23.5-45.7s9.9-32.4,23.5-45.8h2.2c-8.7,13.8-12.7,29.3-12.7,45.8s4,32,12.6,45.8h-2.2Z"/>
</svg>