<?xml version="1.0" encoding="UTF-8"?>
<svg id="Layer_1" xmlns="http://www.w3.org/2000/svg" version="1.1" viewBox="0 0 512 512">
  <!-- Generator: Adobe Illustrator 29.1.0, SVG Export Plug-In . SVG Version: 2.1.0 Build 142)  -->
  <defs>
    <style>
      .st0, .st1 {
        fill-rule: evenodd;
      }

      .st0, .st2 {
        fill: #1d1d1b;
      }

      .st1 {
        fill: #e20613;
      }

      .st3 {
        fill: none;
        stroke: #1d1d1b;
        stroke-miterlimit: 22.9;
        stroke-width: .2px;
      }
    </style>
  </defs>
  <path class="st0" d="M37.4,447.7h3.9c2.4,0,4.2.5,5.2,1.5.9.9,1.5,2.5,1.5,4.8v2.3c0,2.1-.5,3.7-1.5,4.7-1.1.9-2.8,1.3-5.2,1.3h-4.4c-1.1,0-1.9-.1-2.5-.4-.8-.4-1.3-.9-1.9-1.6v6.6h-2.1v-18.9h1.9v2.3c.4-.9,1.1-1.5,1.7-1.9.8-.4,2-.7,3.5-.7M37.6,449.9c-2,0-3.5.3-4.2.9-.7.5-.9,1.7-.9,3.5v1.6c0,1.7.3,3,1.1,3.5.7.5,2,.9,4,.9h3.1c2.1,0,3.5-.4,4.2-.9.7-.5,1.1-1.7,1.1-3.5v-1.6c0-1.7-.4-2.9-1.1-3.5-.7-.7-2-.9-4.2-.9h-3.1Z"/>
  <path class="st0" d="M68.7,460.2h3.6c2,0,3.5-.3,4.2-.9.7-.5.9-1.7.9-3.5v-1.6c0-1.7-.3-2.8-.9-3.5-.7-.5-2.1-.8-4.2-.8h-3.6c-2.1,0-3.5.3-4.2.8-.7.7-1.1,1.7-1.1,3.5v1.6c0,1.7.4,2.9,1.1,3.5.7.7,2,.9,4.2.9M68,462.4c-2.4,0-4.2-.5-5.2-1.5-1.1-.9-1.5-2.5-1.5-4.8v-2.3c0-2.1.5-3.6,1.5-4.6,1.1-.9,2.8-1.5,5.2-1.5h5c2.4,0,4.2.5,5.1,1.5,1.1.9,1.6,2.4,1.6,4.6v2.3c0,2.3-.5,3.9-1.5,4.8-1.1.9-2.8,1.5-5.2,1.5h-5Z"/>
  <path class="st0" d="M93.4,462.1v-13.9h2.3v2c.4-.8,1.1-1.5,1.9-1.9.8-.3,2.1-.5,4-.5s4,.4,5,1.1c.9.8,1.5,2,1.5,3.6v1.9h-2.1v-1.2c0-1.3-.3-2.1-.9-2.5-.7-.5-2-.7-4-.7s-3.1.3-3.9.8c-.9.5-1.3,1.5-1.3,2.7v8.7h-2.3Z"/>
  <path class="st0" d="M124.1,448h9.4v1.9h-9.4v7.4c0,1.2.3,2,.8,2.4.4.4,1.6.7,3.4.7s2.4-.1,2.9-.5c.5-.4.8-1.1.8-2.3v-1.9h1.9v1.9c0,1.7-.4,2.9-1.3,3.8-.9.7-2.5,1.1-4.8,1.1s-2.1-.1-2.9-.4c-.7-.1-1.3-.5-1.9-1.1-.3-.3-.5-.7-.7-1.2-.3-.5-.3-1.3-.3-2.5v-7.2h-3.1v-1.9h3.1v-3.4h2.1v3.4Z"/>
  <path class="st0" d="M157.1,447.7c2.1,0,3.8.4,4.8,1.3,1.1.8,1.6,2.1,1.6,3.9v9.1h-2.3v-1.9c-.3.8-.8,1.3-1.6,1.6-.7.4-1.9.5-3.3.5h-3.8c-2.4,0-4.2-.4-5.1-1.1-.9-.7-1.5-1.9-1.5-3.6s.5-2.7,1.5-3.4c.9-.7,2.7-.9,5.1-.9h3.9c1.2,0,2.1.1,2.9.4.8.3,1.5.7,1.9,1.2v-1.9c0-1.2-.3-2-.9-2.5-.7-.4-1.7-.7-3.6-.7h-3.4c-1.7,0-2.8.1-3.3.4-.4.3-.7.8-.7,1.5v.5h-2.4v-.4c0-1.5.5-2.5,1.5-3.2.9-.5,2.5-.9,4.7-.9h4ZM161.1,458.3v-1.2c0-.7-.3-1.2-.9-1.5-.7-.3-1.9-.4-3.6-.4h-3.5c-1.9,0-3.2.1-3.8.5-.5.3-.9.9-.9,1.9s.3,1.7.8,2c.5.4,1.9.5,3.9.5h3.5c1.7,0,3.1-.1,3.6-.4.7-.3.9-.7.9-1.5Z"/>
  <path class="st0" d="M184.7,460.2h3.2c2,0,3.3-.3,4-.9.7-.5,1.1-1.7,1.1-3.5v-1.6c0-1.7-.4-2.8-1.1-3.5-.7-.5-2-.8-4-.8h-3.2c-2,0-3.4.3-4,.8-.7.7-1.1,1.7-1.1,3.5v1.6c0,1.7.4,2.9,1.1,3.5.7.7,2,.9,4,.9M184.7,462.4c-1.6,0-2.8-.3-3.5-.5-.8-.4-1.3-1.1-1.7-2v2.3h-2v-20h2.1v7.6c.5-.7,1.2-1.2,1.9-1.5.7-.4,1.6-.5,2.7-.5h4.3c2.4,0,4.2.5,5.2,1.5,1.1.9,1.6,2.4,1.6,4.6v2.3c0,2.3-.5,3.9-1.6,4.8-1.1.9-2.8,1.5-5.2,1.5h-3.7Z"/>
  <rect class="st2" x="209.2" y="442.1" width="2.3" height="20"/>
  <path class="st0" d="M227.8,453.5h13.1v-.4c0-1.2-.3-2-.9-2.5-.7-.5-1.9-.7-3.9-.7h-3.5c-1.7,0-3.1.3-3.8.8-.7.5-1.1,1.5-1.1,2.8M236.3,447.7c2.7,0,4.4.5,5.5,1.5,1.1,1.1,1.6,2.8,1.6,5.2v1.1h-15.5v.8c0,1.5.4,2.5,1.1,3.1.8.7,2,.9,3.9.9h3.6c1.6,0,2.7-.1,3.5-.5.8-.4,1.1-1.1,1.1-1.9h0c0-.1,2.4-.1,2.4-.1v.4c0,1.3-.5,2.4-1.6,3.1-1.1.7-2.7,1.1-4.8,1.1h-4.3c-2.5,0-4.3-.5-5.5-1.5-1.1-.9-1.6-2.4-1.6-4.7v-2.3c0-2.1.5-3.8,1.6-4.7,1.2-.9,2.9-1.5,5.5-1.5h3.6Z"/>
  <path class="st0" d="M289.9,462.4h-3.8c-2.5,0-4.3-.5-5.2-1.5-1.1-.9-1.6-2.5-1.6-4.8v-2.3c0-2.1.5-3.6,1.6-4.6,1.1-.9,2.8-1.5,5.2-1.5h4.3c1.1,0,2,.1,2.7.5.7.3,1.3.8,1.7,1.5v-7.6h2.1v20h-1.9v-2.3c-.4.9-.9,1.6-1.7,2-.8.3-2,.5-3.5.5M289.7,460.2c2.1,0,3.5-.3,4.2-.9.7-.5.9-1.7.9-3.5v-1.6c0-1.7-.3-2.8-.9-3.5-.7-.5-2-.8-4.2-.8h-3.1c-2.1,0-3.5.3-4.2.8-.7.7-.9,1.7-.9,3.5v1.6c0,1.7.3,2.9.9,3.5.7.7,2,.9,4.2.9h3.1Z"/>
  <path class="st0" d="M311.3,462.1v-14.1h2.3v14.1h-2.3ZM311.3,444.8v-2.7h2.3v2.7h-2.3Z"/>
  <path class="st0" d="M333.8,455.8c-2.7,0-4.3-.1-5.1-.7-.7-.5-1.1-1.6-1.1-3.2s.4-2.5,1.3-3.2c.9-.5,2.5-.9,4.8-.9h4c2.1,0,3.8.3,4.8.9,1.1.5,1.5,1.3,1.5,2.5v.9h-2.1v-.5c0-.7-.3-1.2-.9-1.3-.7-.3-2-.4-4-.4h-2.3c-2.1,0-3.6.1-4.2.4-.5.3-.8.8-.8,1.6s.3,1.3.8,1.6c.5.3,2,.4,4.2.4h3.9c1.7,0,2.9.1,3.6.3.7.1,1.2.4,1.5.8.4.4.7.8.8,1.2.1.5.3,1.3.3,2.4s-.5,2.4-1.5,2.9c-.8.5-2.5.8-5,.8h-5.6c-1.9,0-3.2-.4-4-1.2-.8-.7-1.2-2-1.2-3.9h2v.3c0,1.1.3,1.7.7,2.1.4.4,1.5.5,2.9.5h6.4c1.2,0,2-.1,2.4-.4.3-.3.4-.9.4-1.9s-.1-1.3-.5-1.6c-.4-.3-1.2-.5-2.3-.5h-5.8Z"/>
  <path class="st0" d="M366.3,447.7h3.9c2.4,0,4.2.5,5.2,1.5,1.1.9,1.6,2.5,1.6,4.8v2.3c0,2.1-.5,3.7-1.6,4.7-1.1.9-2.8,1.3-5.2,1.3h-4.4c-.9,0-1.9-.1-2.5-.4-.8-.4-1.3-.9-1.9-1.6v6.6h-2.1v-18.9h1.9v2.3c.4-.9,1.1-1.5,1.7-1.9.8-.4,2-.7,3.5-.7M366.4,449.9c-2,0-3.3.3-4,.9-.7.5-1.1,1.7-1.1,3.5v1.6c0,1.7.4,3,1.1,3.5.7.5,2,.9,4,.9h3.2c2,0,3.3-.4,4-.9.7-.5,1.1-1.7,1.1-3.5v-1.6c0-1.7-.4-2.9-1.1-3.5-.7-.7-2-.9-4-.9h-3.2Z"/>
  <rect class="st2" x="390.9" y="442.1" width="2.1" height="20"/>
  <path class="st0" d="M418,447.7c2.1,0,3.8.4,4.8,1.3,1.1.8,1.5,2.1,1.5,3.9v9.1h-2.1v-1.9c-.3.8-.9,1.3-1.6,1.6-.8.4-1.9.5-3.3.5h-3.8c-2.4,0-4.2-.4-5.1-1.1-.9-.7-1.5-1.9-1.5-3.6s.5-2.7,1.5-3.4c.9-.7,2.7-.9,5.1-.9h3.9c1.2,0,2.1.1,2.9.4.8.3,1.5.7,1.9,1.2v-1.9c0-1.2-.3-2-.9-2.5-.7-.4-1.9-.7-3.6-.7h-3.3c-1.7,0-2.8.1-3.4.4-.4.3-.7.8-.7,1.5v.5h-2.4v-.4c0-1.5.5-2.5,1.5-3.2.9-.5,2.4-.9,4.6-.9h4.2ZM422,458.3v-1.2c0-.7-.3-1.2-.9-1.5-.7-.3-1.9-.4-3.6-.4h-3.5c-2,0-3.2.1-3.8.5-.7.3-.9.9-.9,1.9s.3,1.7.8,2c.5.4,1.9.5,3.9.5h3.5c1.7,0,3.1-.1,3.6-.4.7-.3.9-.7.9-1.5Z"/>
  <path class="st0" d="M443.8,462.1l-7.6-14.1h2.4l6.8,12.2,6.2-12.2h2.4l-7,14.1c-1.1,2.1-2,3.6-2.9,4.2-.9.7-2.1.9-3.8.9h-1.6v-2h.8c1.5,0,2.7-.3,3.3-.7.7-.4,1.2-1.2,1.6-2.4h-.7Z"/>
  <path class="st0" d="M472.1,455.8c-2.5,0-4.3-.1-5.1-.7-.7-.5-1.1-1.6-1.1-3.2s.4-2.5,1.3-3.2c.9-.5,2.5-.9,4.8-.9h4c2.1,0,3.9.3,4.8.9,1.1.5,1.6,1.3,1.6,2.5v.9h-2.1v-.5c0-.7-.4-1.2-1.1-1.3-.7-.3-2-.4-4-.4h-2.3c-2.1,0-3.5.1-4,.4-.5.3-.9.8-.9,1.6s.4,1.3.9,1.6c.5.3,1.9.4,4,.4h3.9c1.7,0,2.9.1,3.6.3.7.1,1.2.4,1.6.8.3.4.5.8.7,1.2.1.5.3,1.3.3,2.4s-.5,2.4-1.3,2.9c-.9.5-2.7.8-5.1.8h-5.6c-1.9,0-3.2-.4-4-1.2-.7-.7-1.1-2-1.2-3.9h2.1v.3c0,1.1.1,1.7.5,2.1.5.4,1.5.5,3.1.5h6.3c1.2,0,2-.1,2.4-.4.3-.3.4-.9.4-1.9.1-.8-.1-1.3-.5-1.6-.4-.3-1.2-.5-2.3-.5h-5.8Z"/>
  <path class="st0" d="M22.3,353.3h39.1v5c-1.3-.3-2.4-.4-3.4-.4h-11.7v46.8c0,.9.1,1.7.4,2.5h-9.6c.1-.7.3-1.6.3-2.5v-46.8h-11.7c-1.1,0-2.3.1-3.5.4v-5Z"/>
  <path class="st0" d="M115.7,353.3h27.9v4.4c-.8-.3-1.6-.4-2.5-.4h-16.1v20.5h15.7c1.1,0,2.1,0,3-.3v4.4c-.7-.3-1.7-.3-3-.3h-15.7v21.2h15.7c.8,0,1.7-.1,3-.4v4.7h-27.9c.3-.8.3-1.6.3-2.5v-48.6c0-1.1,0-2-.3-2.7"/>
  <path class="st0" d="M195.8,353.3h39.1v5c-1.3-.3-2.4-.4-3.3-.4h-11.7v46.8c0,.9.1,1.7.4,2.5h-9.8c.3-.7.4-1.6.4-2.5v-46.8h-11.7c-1.1,0-2.3.1-3.5.4v-5Z"/>
  <path class="st0" d="M298.5,379.1h4.3c2.4,0,4.6-.5,6.3-1.9,2.8-2,4.3-5.1,4.3-9s-1.2-6.6-3.6-8.7c-1.7-1.6-4.3-2.4-7.5-2.4h-3.8v22ZM298.6,382.2v22.4c0,.9.1,1.7.3,2.5h-9.6c.1-.7.3-1.5.3-2.5v-48.8c0-.8-.1-1.7-.3-2.5h16.3c3.8,0,7,.8,9.8,2.4,2.1,1.2,3.9,2.8,5.2,5,1.2,2.1,1.9,4.6,1.9,7.2,0,6-2.8,10.2-8.4,12.3-1.6.5-3.6,1.1-6,1.6l17.7,23.2c.7.9,1.3,1.7,2.1,2.1h-11.8c-.3-.8-.7-1.6-1.1-2.3l-16.3-22.6Z"/>
  <path class="st0" d="M464.6,380.3l-13.7-24.7c-.4-.9-.9-1.6-1.5-2.4h10.5c.3.9.7,1.7,1.1,2.4l9.8,17.6,10.5-17.6c.3-.5.7-1.3,1.1-2.4h5.1c-.7.9-1.2,1.7-1.6,2.4l-12.9,21.4,15.1,27.7c.5.9,1.1,1.6,1.5,2.3h-10.5c-.3-.8-.7-1.6-1.1-2.3l-11.4-20.2-12.1,20.2c-.5.8-.8,1.6-1.2,2.3h-5.1c.7-.8,1.3-1.6,1.7-2.3l14.6-24.5Z"/>
  <line class="st3" x1="24.2" y1="430.3" x2="489" y2="430.3"/>
  <path class="st0" d="M386.2,407.1h8.8v-46.5c-.1,0-.2.1-.3.2-.6.3-2,.9-4.1.9s-3.5-.6-4.1-.9c-.1,0-.2,0-.3-.2v46.5Z"/>
  <path class="st1" d="M384.2,351.9c0-3.6,2.8-6.4,6.4-6.4s6.4,2.8,6.4,6.4-2.8,6.4-6.4,6.4-6.4-2.9-6.4-6.4"/>
  <path class="st0" d="M230.5,297.8s4.3-33.9-40.1-37.1c-28.7-2.1-54.1-17-54.9-48.9-.8-29.7,15.7-50.6,14.2-61.6-1.5-10.9-10.2-23.9-10.2-35.4s19-53.5,27.2-64.4c6.7-8.8,24-5.4,29.1-1.7,9.6,6.7,14.9,26.3,14.9,26.3,0,0-12.3-9.9-18.2-11,2.5,16.3,15.9,62.6,26.1,72.8,10.9,10.9,18.5,12.7,25.3,13.1,29.5,1.9,41.8,34.4,41.8,34.4,0,0-19.6-23.7-42.6-24.9-9.1-.4-19.3-6.4-25.9-13.5-11.8-12.7-17.8-51.3-28.3-85.9,0,0,5,0,12.2,4.3-6.4-10.9-21.2-13.9-28.7-11.5-11.5,3.6-20.8,30.6-27.1,50.8-4.7,15,7.9,27.6,10,45.4,2.1,17.7-17,34.7-7.2,68.2,6.6,22.5,27.3,31.6,44.4,37.1,16.1,5.1,28.9,8.6,35.6,18.1,6.7,9.8,2.3,25.6,2.3,25.6"/>
  <path class="st0" d="M242.3,139.8c-2.9-2-9-10.5-6.6-19.6,5.8-21.4,47.6-53.1,104.8-36.6,41.3,11.8,60.7,48.2,60.4,78.7-.1,27.9-23.3,49.2-48.1,37-17.6-8.7-41.9-8.8-59.9,22.6,14.2-35,44.8-38.2,63.6-29.3,17.8,8.4,31.8-8.4,31.9-27.7.1-28.7-16.7-62.6-57.3-74.4-56.4-16.6-108.1,25.2-88.8,49.3"/>
</svg>