<?xml version="1.0" encoding="UTF-8"?>
<svg id="Layer_1" xmlns="http://www.w3.org/2000/svg" version="1.1" viewBox="0 0 841.9 316.7">
  <!-- Generator: Adobe Illustrator 29.1.0, SVG Export Plug-In . SVG Version: 2.1.0 Build 142)  -->
  <defs>
    <style>
      .st0 {
        fill: #af0917;
      }
    </style>
  </defs>
  <path class="st0" d="M745.9,228.1c-3.8-10.1-7.8-20.5-11.9-31.3-4.1-10.8-8.1-21.3-11.8-31.6-3.8-10.3-7.3-20-10.6-29.2-3.3-9.2-6.1-17-8.4-23.4-3,.3-3.7.5-7.3.5s-4.3-.1-7.3-.5c-4.4,13.5-9.5,28-15.2,43.5-5.7,15.4-11.4,30.6-17.2,45.6-5.8,15-11.4,29.1-16.8,42.5-1.6,4.1-3.2,8-4.8,11.7-10.8.3-22.3.6-34.5,1-.2-3-.3-6-.3-9-.3-10.3-.4-22.2-.4-35.6v-32.8c0-13.4.1-25.3.4-35.6.3-10.4.7-20.8,1.4-31.3-2.6.3-5.4.6-8.5.8-3,.2-.9.3-4.8.3s-7.2,0-10.3-.3c-3.1-.2-5.9-.5-8.5-.8.7,10.5,1.1,20.9,1.4,31.3.3,10.3.4,22.2.4,35.6v32.8c0,13.3-.2,25.2-.4,35.6-.1,3.3-.3,6.6-.4,9.9-25.4.7-52.3,1.6-78.6,2.4,2.8-8.1,5.8-16.5,9-25.2,5.7-15.4,11.4-30.6,17.2-45.6,5.8-14.9,11.4-29.1,16.8-42.5,5.4-13.3,10-24.7,13.8-34.2-3.8.8-7.1,1.1-10.1,1.1s-6.3-.4-10.1-1.1c-6,19-12.7,38.8-20.2,59.5-7.5,20.7-15.2,41.2-23.1,61.7-3.6-10.2-7.2-20.5-11-30.9-3.7-10.4-7.4-20.9-10.9-31.3-3.6-10.4-6.9-20.5-10.2-30.5-3.3-10-6.2-19.5-8.8-28.5-3.4.3-6.8.6-10.1.8-3.3.2-1.1.3-4.5.3s-6.8,0-10.2-.3c-3.4-.2-6.9-.5-10.4-.8,2.5,6.1,5.4,13.5,8.8,22.2,3.3,8.6,6.9,18,10.7,28.1,3.9,10.1,7.9,20.5,12,31.3,4.1,10.8,8.1,21.3,11.8,31.6,3.8,10.3,7.3,20,10.6,29.2.7,2.1,1.5,4.1,2.1,5.9-13.2.5-26,.9-38.4,1.3-19.8.7-39.8,1.2-59.1,1.4,8-3.9,15.1-8.8,21.2-14.9,7.4-7.4,13.2-16,17.4-25.9,4.2-9.9,6.3-20.5,6.3-32s-2.1-25.7-6.5-36c-4.4-10.3-10.3-18.8-17.8-25.4-7.5-6.7-16.3-11.8-26.5-15.1-10.2-3.3-21.1-5-32.9-5s-24.4,2.1-34.8,6.4c-10.5,4.2-19.4,10.1-26.7,17.6-7.4,7.4-13.1,16.1-17.1,26-4,9.9-6.1,20.5-6.1,31.7s2.2,26.6,6.6,36.9c4.4,10.3,10.4,18.7,18,25.4,5,4.4,10.6,7.9,16.7,10.7-26-.1-48.2-.5-64.2-.8v-13.9c0-11.6,0-22.5.1-32.7,0-10.2.3-20.6.6-31,.2-10.5.7-21.6,1.1-33.4.5-11.8,1.1-25.1,1.8-39.7-4.3.8-4.9,1.1-7.5,1.1s-8.8-.4-13.1-1.1c.3,1.6.6,4.7.8,9.4.3,4.7.4,10.2.5,16.7,0,6.4.1,13.5.2,21.1,0,7.6.1,15.4.1,23.3v44.4c-17.1-19.5-33.9-38.6-50.2-57.5-16.3-18.8-32.8-38-49.5-57.4-4.3.8-5,1.1-7.6,1.1s-3.2-.4-7.5-1.1c.2,5.8.4,12.5.7,20,.3,7.6.5,16.9.5,28s-.2,25-.6,38.2c-.4,13.3-.8,25.6-1.4,37-.5,11.3-1,21-1.4,28.9-.5,7.8-.9,12.5-1.2,13.7,3.5-.3,4.3-.5,7.8-.5h5.3c1.8,0,3.7.2,5.5.5-.2-1.8-.3-4.1-.4-7.1-.2-3-.3-6.8-.5-11.5-.1-4.7-.2-10.4-.3-17.1,0-6.8,0-15,0-24.6v-28c0-4.8,0-9.6,0-14.2.1-4.7.2-9.4.3-14,33.8,37.4,65.9,74.5,96.2,111.4l4.1,6.1s5.8-.3,15.6-.9h.2c39.1-2.2,141.6-7.6,204.5-9.7,11.5-.4,25.7-.9,41.5-1.5,1.5,4.1,2.8,7.8,4,11.1,3.1-.3,6.4-.5,10.1-.5s1.5.2,4.6.5c1.2-3.9,2.6-7.9,4-12,25.3-.9,53.3-2,80.5-3.1-.2,5.1-.5,10.1-.8,15,2.6-.3,5.5-.5,8.5-.5h15c3.1,0,5.9.2,8.5.5-.3-5.3-.6-10.8-.9-16.3,11.2-.4,22.1-.9,32.3-1.3-2.5,6.4-4.9,12.3-7,17.5,3.8-.7,7.2-1.1,10.1-1.1s6.3.4,10.1,1.1c1.9-6,3.9-12.1,5.9-18.2,34.1-1.4,57.5-2.3,57.5-2.3l-.6-4s-21.9.6-55.3,1.5c4-11.8,8.2-24,12.7-36.4,7.5-20.7,15.2-41.2,23.3-61.7,3.4,10.1,7.1,20.4,10.9,30.9,3.7,10.5,7.3,20.9,10.9,31.3,3.5,10.3,7,20.5,10.2,30.5,3.3,10,6.3,19.5,8.9,28.5,3.4-.3,6.7-.6,10.1-.8,3.4-.2,1.2-.4,4.5-.4s6.8.1,10.2.4c3.4.2,6.9.5,10.4.8-2.4-6.1-5.3-13.5-8.7-22.2-3.4-8.7-6.9-18.1-10.8-28.1ZM346.2,259.4c-6.4,3.1-13.1,4.7-20.1,4.7s-12.8-1.2-18.7-3.7c-5.9-2.4-11.1-6.3-15.6-11.7-4.5-5.4-8.1-12.5-10.7-21.4-2.7-8.9-4-19.7-4-32.6s1.1-20,3.4-29.1c2.2-9.1,5.5-17.1,9.9-23.8,4.4-6.8,9.7-12.1,16-16.1,6.3-3.9,13.4-5.9,21.4-5.9s14.4,1.6,20.7,4.7c6.4,3.1,11.7,7.6,16.2,13.4,4.4,5.8,7.9,12.9,10.3,21.1,2.5,8.3,3.7,17.7,3.7,28.2s-1.4,24.7-4.3,34.3c-2.9,9.7-6.8,17.7-11.5,23.9-4.8,6.3-10.4,11-16.7,14Z"/>
  <g>
    <path class="st0" d="M146.3,68.3c1-.5,1.8-1.1,2.3-1.9.9-1.4,1.3-3.6,1.3-6.8s-.8-6.3-2.4-7.9c-1.6-1.6-4.3-2.3-8.1-2.3h-16.6v34.7h5.4v-13.4h11.7c1.8,0,4.2.5,4.2,5v8.4h5.4v-9.3c0-3.7-1.4-5.6-3.2-6.5ZM143.5,64.2c-.6.5-2,1.1-5.3,1.1h-10v-11.8h11.2c2.8,0,3.9.6,4.3,1.1.4.5,1,1.9,1,5.3s-.4,3.6-1.3,4.3Z"/>
    <path class="st0" d="M391.1,72.1h-5.4v.8s0,1.5,0,1.5c0,3.9.9,6.5,2.7,7.9,1.7,1.3,5,2,10,2s9.4-.6,11.1-2c1.8-1.4,2.7-4.2,2.7-8.6s-.8-6.7-2.4-7.9c-1.5-1.2-4.9-1.9-10.3-2.1-5.5-.3-7.1-.8-7.5-1.1-.3-.2-1-1-1-4.2s.4-3.4,1.3-3.9c.7-.4,2.5-.9,7.1-.9s5.3.6,5.8.9c.4.3,1,1.3,1,4.4v.8h5.3v-.8c0-4.2-.8-6.8-2.6-8.2-1.7-1.3-5-1.9-10.2-1.9s-8.5.7-10.3,2.1c-1.9,1.4-2.8,4.1-2.8,8.2,0,5.8,3.2,9.1,9.2,9.5,0,0,3.7.2,3.7.2,0,0,3.9.2,3.9.2,2.5.2,3.4.7,3.7,1,.3.3.8,1.1.8,3.5,0,3.7-.7,4.8-1.1,5.1-.5.3-2.1.9-7.4.9s-6-.6-6.4-.9c-.4-.3-1-1.4-1-4.9v-1.6Z"/>
    <path class="st0" d="M98.5,64.1"/>
    <path class="st0" d="M101,69.6v14.4h-5.4v-14.4l-12.1-19.1-.8-1.3h6.3l.2.4s7.1,11.2,7.1,11.2l2,3.2s0,0,0,0c0,0,.7-1.1.7-1.1,0,0,1.4-2.2,1.4-2.2l7.1-11.2.2-.4h6.4l-.8,1.3-12.4,19.1Z"/>
    <polygon class="st0" points="174.2 66 188.8 50.7 190.1 49.3 188.2 49.3 183.3 49.3 183 49.3 182.7 49.5 169.4 63.7 167.3 63.7 167.3 50.1 167.3 49.3 166.5 49.3 162.8 49.3 162 49.3 162 50.1 162 83.2 162 84 162.8 84 166.5 84 167.3 84 167.3 83.2 167.3 68.5 169.4 68.5 184.3 83.7 184.5 84 184.9 84 190 84 192 84 190.6 82.6 174.2 66"/>
    <path class="st0" d="M204.1,63.7"/>
    <polygon class="st0" points="204.1 79.2 220.7 79.2 221.6 79.2 221.6 80 221.6 83.2 221.6 84 220.7 84 199.5 84 198.7 84 198.7 83.2 198.7 50.1 198.7 49.3 199.5 49.3 220.7 49.3 221.6 49.3 221.6 50.1 221.6 53.2 221.6 54.1 220.7 54.1 204.1 54.1 204.1 63.7 220 63.7 220.8 63.7 220.8 64.5 220.8 67.7 220.8 68.5 220 68.5 204.1 68.5 204.1 79.2"/>
    <path class="st0" d="M236.5,72.1h-5.4v.8s0,1.5,0,1.5c0,3.9.9,6.5,2.7,7.9,1.7,1.3,5,2,10,2s9.4-.6,11.1-2c1.8-1.4,2.7-4.2,2.7-8.6s-.8-6.7-2.4-7.9c-1.5-1.2-4.9-1.9-10.3-2.1-5.5-.3-7.1-.8-7.5-1.1-.3-.2-1-1-1-4.2s.4-3.4,1.3-3.9c.7-.4,2.5-.9,7.1-.9s5.3.6,5.8.9c.4.3,1,1.3,1,4.4v.8h5.3v-.8c0-4.2-.8-6.8-2.6-8.2-1.7-1.3-5-1.9-10.2-1.9s-8.5.7-10.3,2.1c-1.9,1.4-2.8,4.1-2.8,8.2,0,5.8,3.2,9.1,9.2,9.5,0,0,3.7.2,3.7.2,0,0,3.9.2,3.9.2,2.5.2,3.4.7,3.7,1,.3.3.8,1.1.8,3.5,0,3.7-.7,4.8-1.1,5.1-.5.3-2.1.9-7.4.9s-6-.6-6.4-.9c-.4-.3-1-1.4-1-4.9v-1.6Z"/>
    <line class="st0" x1="291.8" y1="63.9" x2="274.1" y2="63.9"/>
    <polygon class="st0" points="291.8 68.7 291.8 83.2 291.8 84 292.6 84 296.4 84 297.2 84 297.2 83.2 297.2 50.1 297.2 49.3 296.4 49.3 292.6 49.3 291.8 49.3 291.8 50.1 291.8 63.9 274.1 63.9 274.1 50.1 274.1 49.3 273.3 49.3 269.6 49.3 268.8 49.3 268.8 50.1 268.8 83.2 268.8 84 269.6 84 273.3 84 274.1 84 274.1 83.2 274.1 68.7 291.8 68.7"/>
    <path class="st0" d="M335.2,52c-1.7-2-5.8-3-12.3-3s-9.4.8-11.6,2.6c-2.2,1.8-3.3,5-3.3,9.6,0,0,0,3.1,0,3.1v2.3c0,7.9.8,12.7,2.5,14.7,1.7,2,5.8,3,12.4,3s10.8-1,12.4-3.1c1.6-2,2.4-6.9,2.4-15.1s-.8-12.2-2.5-14.2ZM332.6,66.6c0,8.7-.7,10.9-1.2,11.5-.3.4-1.8,1.4-8.6,1.4s-8.2-1-8.5-1.4c-.4-.6-1.2-2.8-1.2-11.5s.7-10.9,1.2-11.5c.3-.4,1.8-1.4,8.5-1.4s7.4.7,8.2,1.3c.7.6,1.5,2.1,1.5,6.3s0,3.1,0,3.1c0,0,0,2.1,0,2.1Z"/>
    <path class="st0" d="M320.3,46.9h.8v-4.8h-5.4v4.8h4.5Z"/>
    <path class="st0" d="M329.2,46.9h.8v-4.8h-5.4v4.8h4.5Z"/>
    <path class="st0" d="M352.4,62.2c0-4.8.7-6.5,1.4-7.1.5-.5,2.2-1.3,7.5-1.3s7.7.5,8.2.8c.8.5,1.3,2,1.3,4.3v1.6h5.3v-2.1c0-4-.9-6.5-2.8-7.8-1.8-1.2-5.5-1.7-11.3-1.7s-9.7.9-11.7,2.6c-2.1,1.8-3.1,5.2-3.1,10.4,0,0,0,2.9,0,2.9,0,0,0,4.9,0,4.9,0,6.1.9,10,2.7,11.8,1.8,1.8,5.7,2.7,11.8,2.7s10.4-.8,12-2.3c1.6-1.6,2.4-5.4,2.4-11.6s0-2.8,0-3.7v-.8h-15.8v4.8h10.6c0,.7.1,1.1.1,1.2,0,4.7-.7,6.1-1.2,6.5-.4.4-1.9,1.1-6.8,1.1s-8.5-.8-9.1-1.3c-.6-.4-1.5-1.9-1.5-7v-9.1Z"/>
    <polygon class="st0" points="451.9 82.6 435.5 66 450.1 50.7 451.4 49.3 444.3 49.3 444.1 49.5 430.8 63.7 428.7 63.8 428.6 50.1 428.6 49.3 423.3 49.3 423.3 84 428.6 84 428.6 68.5 430.7 68.5 445.6 83.7 445.9 84 453.3 84 451.9 82.6"/>
    <path class="st0" d="M428.6,63.7"/>
    <path class="st0" d="M486.6,52c-1.7-2-5.8-3-12.3-3s-9.4.8-11.6,2.6c-2.2,1.8-3.3,5-3.3,9.6,0,0,0,3.1,0,3.1v2.3c0,7.9.8,12.7,2.5,14.7,1.7,2,5.8,3,12.4,3s10.8-1,12.4-3.1c1.6-2,2.4-6.9,2.4-15.1s-.8-12.2-2.5-14.2ZM483.9,66.6c0,8.7-.7,10.9-1.2,11.5-.3.4-1.8,1.4-8.6,1.4s-8.2-1-8.5-1.4c-.4-.6-1.2-2.8-1.2-11.5s.7-10.9,1.2-11.5c.3-.4,1.8-1.4,8.5-1.4s7.4.7,8.2,1.3c.7.6,1.5,2.1,1.5,6.3s0,3.1,0,3.1c0,0,0,2.1,0,2.1Z"/>
    <polyline class="st0" points="505.3 78.9 505.3 50.1 505.3 49.3 504.4 49.3 500.7 49.3 499.9 49.3 499.9 50.1 499.9 83.2 499.9 84 500.7 84 521.4 84 522.2 84 522.2 83.2 522.2 79.7 522.2 78.9 521.4 78.9 505.3 78.9"/>
    <path class="st0" d="M594.9,77.3h0c0-.1-1.6-2.7-1.6-2.7,0,0-3.1-5.2-3.1-5.2,0,0-12.1-19.7-12.1-19.7l-.2-.4h-7.4v34.7h5.4v-27.9c.3.5.8,1.3.8,1.3,0,0,2.3,3.7,2.3,3.7,0,0,13.9,22.5,13.9,22.5l.2.4h7.4v-34.7h-5.4v28"/>
    <path class="st0" d="M560.5,82.9l-12.4-33.1-.2-.5h-6.4l-.2.5-12.1,33.1-.4,1.1h5.7l.2-.5,2.3-6.5h15.6s2.4,6.5,2.4,6.5l.2.5h5.6l-.4-1.1ZM538.8,72.5l6.1-17,6.2,17h-12.3Z"/>
  </g>
</svg>